<?xml version="1.0" encoding="UTF-8" standalone="no"?>
<!DOCTYPE svg PUBLIC "-//W3C//DTD SVG 1.1//EN"
 "http://www.w3.org/Graphics/SVG/1.1/DTD/svg11.dtd">
<!-- Generated by graphviz version 2.38.0 (20140413.2041)
 -->
<!-- Title: %3 Pages: 1 -->
<svg width="1535pt" height="348pt"
 viewBox="0.00 0.00 1534.58 348.19" xmlns="http://www.w3.org/2000/svg" xmlns:xlink="http://www.w3.org/1999/xlink">
<g id="graph0" class="graph" transform="scale(1 1) rotate(0) translate(4 344.191)">
<title>%3</title>
<polygon fill="white" stroke="none" points="-4,4 -4,-344.191 1530.58,-344.191 1530.58,4 -4,4"/>
<!-- &#45;1 -->
<g id="node1" class="node"><title>&#45;1</title>
<polygon fill="lightgray" stroke="black" points="381.58,-99.4472 357.58,-99.4472 357.58,-81.4472 381.58,-81.4472 381.58,-99.4472"/>
<text text-anchor="middle" x="369.58" y="-88.2472" font-family="Times,serif" font-size="9.00">&#45;1</text>
</g>
<!-- 1 -->
<g id="node26" class="node"><title>1</title>
<ellipse fill="lightblue" stroke="black" cx="544.58" cy="-14.8492" rx="14.7" ry="14.7"/>
<text text-anchor="middle" x="544.58" y="-12.6492" font-family="Times,serif" font-size="9.00">1</text>
</g>
<!-- &#45;1&#45;&gt;1 -->
<g id="edge15" class="edge"><title>&#45;1&#45;&gt;1</title>
<path fill="none" stroke="green" stroke-width="0.15554" d="M374.969,-81.3882C378.783,-76.2461 384.318,-69.7999 390.58,-65.6985 431.375,-38.9766 487.629,-25.5763 519.636,-19.7161"/>
<polygon fill="green" stroke="green" stroke-width="0.15554" points="520.622,-23.0977 529.882,-17.9482 519.432,-16.1997 520.622,-23.0977"/>
</g>
<!-- &#45;2 -->
<g id="node2" class="node"><title>&#45;2</title>
<polygon fill="lightgray" stroke="black" points="1484.58,-99.4472 1460.58,-99.4472 1460.58,-81.4472 1484.58,-81.4472 1484.58,-99.4472"/>
<text text-anchor="middle" x="1472.58" y="-88.2472" font-family="Times,serif" font-size="9.00">&#45;2</text>
</g>
<!-- 3 -->
<g id="node28" class="node"><title>3</title>
<ellipse fill="lightblue" stroke="black" cx="1296.58" cy="-14.8492" rx="14.7" ry="14.7"/>
<text text-anchor="middle" x="1296.58" y="-12.6492" font-family="Times,serif" font-size="9.00">3</text>
</g>
<!-- &#45;2&#45;&gt;3 -->
<g id="edge51" class="edge"><title>&#45;2&#45;&gt;3</title>
<path fill="none" stroke="green" stroke-width="0.472402" d="M1465.09,-81.0032C1460.24,-75.9681 1453.54,-69.7816 1446.58,-65.6985 1405.71,-41.7268 1351.75,-27.4161 1320.94,-20.6382"/>
<polygon fill="green" stroke="green" stroke-width="0.472402" points="1321.57,-17.195 1311.06,-18.5514 1320.12,-24.0437 1321.57,-17.195"/>
</g>
<!-- &#45;3 -->
<g id="node3" class="node"><title>&#45;3</title>
<polygon fill="lightgray" stroke="black" points="971.58,-99.4472 947.58,-99.4472 947.58,-81.4472 971.58,-81.4472 971.58,-99.4472"/>
<text text-anchor="middle" x="959.58" y="-88.2472" font-family="Times,serif" font-size="9.00">&#45;3</text>
</g>
<!-- 2 -->
<g id="node27" class="node"><title>2</title>
<ellipse fill="lightblue" stroke="black" cx="900.58" cy="-14.8492" rx="14.7" ry="14.7"/>
<text text-anchor="middle" x="900.58" y="-12.6492" font-family="Times,serif" font-size="9.00">2</text>
</g>
<!-- &#45;3&#45;&gt;2 -->
<g id="edge25" class="edge"><title>&#45;3&#45;&gt;2</title>
<path fill="none" stroke="green" stroke-width="0.335877" stroke-dasharray="1,5" d="M953.04,-81.2897C944.212,-70.2771 928.204,-50.3083 916.185,-35.3151"/>
<polygon fill="green" stroke="green" stroke-width="0.335877" points="918.639,-32.7808 909.653,-27.1675 913.177,-37.1591 918.639,-32.7808"/>
</g>
<!-- &#45;4 -->
<g id="node4" class="node"><title>&#45;4</title>
<polygon fill="lightgray" stroke="black" points="672.58,-99.4472 648.58,-99.4472 648.58,-81.4472 672.58,-81.4472 672.58,-99.4472"/>
<text text-anchor="middle" x="660.58" y="-88.2472" font-family="Times,serif" font-size="9.00">&#45;4</text>
</g>
<!-- 0 -->
<g id="node25" class="node"><title>0</title>
<ellipse fill="lightblue" stroke="black" cx="172.58" cy="-14.8492" rx="14.7" ry="14.7"/>
<text text-anchor="middle" x="172.58" y="-12.6492" font-family="Times,serif" font-size="9.00">0</text>
</g>
<!-- &#45;4&#45;&gt;0 -->
<g id="edge43" class="edge"><title>&#45;4&#45;&gt;0</title>
<path fill="none" stroke="red" stroke-width="0.203374" stroke-dasharray="1,5" d="M648.318,-87.1468C624.637,-82.7359 570.942,-72.8893 525.58,-65.6985 402.683,-46.217 255.107,-26.5903 197.409,-19.0614"/>
<polygon fill="red" stroke="red" stroke-width="0.203374" points="197.771,-15.5792 187.403,-17.7598 196.868,-22.5207 197.771,-15.5792"/>
</g>
<!-- &#45;4&#45;&gt;1 -->
<g id="edge58" class="edge"><title>&#45;4&#45;&gt;1</title>
<path fill="none" stroke="red" stroke-width="1.3682" d="M652.802,-81.4434C647.841,-76.5739 641.134,-70.407 634.58,-65.6985 612.816,-50.0622 585.649,-35.6315 566.888,-26.3642"/>
<polygon fill="red" stroke="red" stroke-width="1.3682" points="568.192,-23.1067 557.667,-21.8908 565.136,-29.4047 568.192,-23.1067"/>
</g>
<!-- &#45;4&#45;&gt;2 -->
<g id="edge11" class="edge"><title>&#45;4&#45;&gt;2</title>
<path fill="none" stroke="red" stroke-width="0.598139" d="M665.853,-81.2014C669.617,-75.9804 675.142,-69.5165 681.58,-65.6985 744.521,-28.3726 832.869,-18.9831 875.551,-16.63"/>
<polygon fill="red" stroke="red" stroke-width="0.598139" points="875.786,-20.1229 885.612,-16.1616 875.46,-13.1305 875.786,-20.1229"/>
</g>
<!-- &#45;4&#45;&gt;3 -->
<g id="edge23" class="edge"><title>&#45;4&#45;&gt;3</title>
<path fill="none" stroke="green" stroke-width="0.645246" d="M665.363,-81.3611C669.054,-75.925 674.689,-69.1455 681.58,-65.6985 735.07,-38.9425 1163.28,-20.9316 1271.7,-16.7703"/>
<polygon fill="green" stroke="green" stroke-width="0.645246" points="1271.85,-20.2672 1281.71,-16.3908 1271.59,-13.2722 1271.85,-20.2672"/>
</g>
<!-- &#45;5 -->
<g id="node5" class="node"><title>&#45;5</title>
<polygon fill="lightgray" stroke="black" points="1195.58,-99.4472 1171.58,-99.4472 1171.58,-81.4472 1195.58,-81.4472 1195.58,-99.4472"/>
<text text-anchor="middle" x="1183.58" y="-88.2472" font-family="Times,serif" font-size="9.00">&#45;5</text>
</g>
<!-- &#45;5&#45;&gt;1 -->
<g id="edge14" class="edge"><title>&#45;5&#45;&gt;1</title>
<path fill="none" stroke="green" stroke-width="0.243609" d="M1171.45,-85.861C1153.2,-80.607 1117.53,-70.8811 1086.58,-65.6985 889.381,-32.6773 647.892,-20.1874 570.046,-16.8479"/>
<polygon fill="green" stroke="green" stroke-width="0.243609" points="569.91,-13.3393 559.773,-16.4202 569.619,-20.3332 569.91,-13.3393"/>
</g>
<!-- &#45;5&#45;&gt;3 -->
<g id="edge45" class="edge"><title>&#45;5&#45;&gt;3</title>
<path fill="none" stroke="green" stroke-width="1.00371" d="M1189.95,-81.3406C1194.06,-76.4325 1199.73,-70.261 1205.58,-65.6985 1226.99,-49.0005 1254.73,-34.6847 1273.93,-25.7344"/>
<polygon fill="green" stroke="green" stroke-width="1.00371" points="1275.46,-28.8847 1283.11,-21.5588 1272.56,-22.5127 1275.46,-28.8847"/>
</g>
<!-- &#45;6 -->
<g id="node6" class="node"><title>&#45;6</title>
<polygon fill="lightgray" stroke="black" points="59.5799,-99.4472 35.5799,-99.4472 35.5799,-81.4472 59.5799,-81.4472 59.5799,-99.4472"/>
<text text-anchor="middle" x="47.5799" y="-88.2472" font-family="Times,serif" font-size="9.00">&#45;6</text>
</g>
<!-- &#45;6&#45;&gt;0 -->
<g id="edge20" class="edge"><title>&#45;6&#45;&gt;0</title>
<path fill="none" stroke="red" stroke-width="1.01454" d="M55.2935,-81.352C60.2299,-76.4481 66.9348,-70.2771 73.5799,-65.6985 98.0919,-48.8092 129.128,-34.1298 149.854,-25.1562"/>
<polygon fill="red" stroke="red" stroke-width="1.01454" points="151.286,-28.3506 159.126,-21.2246 148.553,-21.906 151.286,-28.3506"/>
</g>
<!-- &#45;7 -->
<g id="node7" class="node"><title>&#45;7</title>
<polygon fill="lightgray" stroke="black" points="314.58,-184.945 290.58,-184.945 290.58,-166.945 314.58,-166.945 314.58,-184.945"/>
<text text-anchor="middle" x="302.58" y="-173.745" font-family="Times,serif" font-size="9.00">&#45;7</text>
</g>
<!-- &#45;7&#45;&gt;1 -->
<g id="edge59" class="edge"><title>&#45;7&#45;&gt;1</title>
<path fill="none" stroke="red" stroke-width="0.41245" stroke-dasharray="1,5" d="M303.522,-166.942C306.342,-146.718 316.605,-93.2186 348.58,-65.6985 397.943,-23.213 478.675,-16.1241 519.4,-15.4421"/>
<polygon fill="red" stroke="red" stroke-width="0.41245" points="519.555,-18.9415 529.538,-15.3937 519.521,-11.9416 519.555,-18.9415"/>
</g>
<!-- 3482 -->
<g id="node34" class="node"><title>3482</title>
<ellipse fill="white" stroke="black" cx="276.58" cy="-90.4472" rx="25" ry="25"/>
<text text-anchor="middle" x="276.58" y="-88.2472" font-family="Times,serif" font-size="9.00">3482</text>
</g>
<!-- &#45;7&#45;&gt;3482 -->
<g id="edge56" class="edge"><title>&#45;7&#45;&gt;3482</title>
<path fill="none" stroke="green" stroke-width="0.637704" stroke-dasharray="1,5" d="M300.087,-166.939C297.022,-157.094 291.628,-139.774 286.78,-124.206"/>
<polygon fill="green" stroke="green" stroke-width="0.637704" points="290.018,-122.831 283.703,-114.324 283.335,-124.912 290.018,-122.831"/>
</g>
<!-- &#45;8 -->
<g id="node8" class="node"><title>&#45;8</title>
<polygon fill="lightgray" stroke="black" points="1526.58,-99.4472 1502.58,-99.4472 1502.58,-81.4472 1526.58,-81.4472 1526.58,-99.4472"/>
<text text-anchor="middle" x="1514.58" y="-88.2472" font-family="Times,serif" font-size="9.00">&#45;8</text>
</g>
<!-- &#45;8&#45;&gt;3 -->
<g id="edge40" class="edge"><title>&#45;8&#45;&gt;3</title>
<path fill="none" stroke="red" stroke-width="0.14916" stroke-dasharray="1,5" d="M1509.28,-81.2522C1505.5,-76.0527 1499.97,-69.5936 1493.58,-65.6985 1438.23,-31.9689 1360.86,-20.9778 1321.58,-17.4602"/>
<polygon fill="red" stroke="red" stroke-width="0.14916" points="1321.82,-13.9676 1311.57,-16.6536 1321.25,-20.945 1321.82,-13.9676"/>
</g>
<!-- &#45;9 -->
<g id="node9" class="node"><title>&#45;9</title>
<polygon fill="lightgray" stroke="black" points="139.58,-99.4472 115.58,-99.4472 115.58,-81.4472 139.58,-81.4472 139.58,-99.4472"/>
<text text-anchor="middle" x="127.58" y="-88.2472" font-family="Times,serif" font-size="9.00">&#45;9</text>
</g>
<!-- &#45;9&#45;&gt;0 -->
<g id="edge42" class="edge"><title>&#45;9&#45;&gt;0</title>
<path fill="none" stroke="red" stroke-width="0.446636" d="M132.568,-81.2897C139.124,-70.566 150.874,-51.3498 159.95,-36.505"/>
<polygon fill="red" stroke="red" stroke-width="0.446636" points="162.956,-38.2993 165.186,-27.9419 156.984,-34.6477 162.956,-38.2993"/>
</g>
<!-- &#45;9&#45;&gt;1 -->
<g id="edge26" class="edge"><title>&#45;9&#45;&gt;1</title>
<path fill="none" stroke="green" stroke-width="0.595912" stroke-dasharray="1,5" d="M132.734,-80.9892C136.448,-75.6787 141.961,-69.1946 148.58,-65.6985 213.547,-31.38 442.63,-19.7115 519.339,-16.7175"/>
<polygon fill="green" stroke="green" stroke-width="0.595912" points="519.651,-20.2083 529.513,-16.337 519.389,-13.2132 519.651,-20.2083"/>
</g>
<!-- &#45;10 -->
<g id="node10" class="node"><title>&#45;10</title>
<polygon fill="lightgray" stroke="black" points="939.08,-184.945 910.08,-184.945 910.08,-166.945 939.08,-166.945 939.08,-184.945"/>
<text text-anchor="middle" x="924.58" y="-173.745" font-family="Times,serif" font-size="9.00">&#45;10</text>
</g>
<!-- &#45;10&#45;&gt;1 -->
<g id="edge44" class="edge"><title>&#45;10&#45;&gt;1</title>
<path fill="none" stroke="red" stroke-width="0.218843" d="M916.799,-166.481C911.39,-161.168 903.714,-154.684 895.58,-151.196 776.617,-100.189 715.665,-184.869 606.58,-115.196 578.669,-97.3693 561.175,-62.0049 552.142,-38.6394"/>
<polygon fill="red" stroke="red" stroke-width="0.218843" points="555.396,-37.3458 548.681,-29.1503 548.82,-39.7443 555.396,-37.3458"/>
</g>
<!-- &#45;10&#45;&gt;2 -->
<g id="edge4" class="edge"><title>&#45;10&#45;&gt;2</title>
<path fill="none" stroke="green" stroke-width="0.328637" stroke-dasharray="1,5" d="M923.357,-166.836C919.859,-143.653 909.717,-76.4185 904.221,-39.9886"/>
<polygon fill="green" stroke="green" stroke-width="0.328637" points="907.63,-39.1206 902.678,-29.7546 900.708,-40.1649 907.63,-39.1206"/>
</g>
<!-- &#45;10&#45;&gt;3 -->
<g id="edge13" class="edge"><title>&#45;10&#45;&gt;3</title>
<path fill="none" stroke="red" stroke-width="0.347578" stroke-dasharray="1,5" d="M939.125,-166.785C949.3,-161.461 963.379,-154.845 976.58,-151.196 1046.19,-131.952 1251.42,-169.019 1299.58,-115.196 1318.06,-94.5473 1312.17,-60.717 1305.22,-38.3644"/>
<polygon fill="red" stroke="red" stroke-width="0.347578" points="1308.47,-37.0426 1301.93,-28.7059 1301.84,-39.3004 1308.47,-37.0426"/>
</g>
<!-- 4130 -->
<g id="node29" class="node"><title>4130</title>
<ellipse fill="white" stroke="black" cx="491.58" cy="-90.4472" rx="25" ry="25"/>
<text text-anchor="middle" x="491.58" y="-88.2472" font-family="Times,serif" font-size="9.00">4130</text>
</g>
<!-- &#45;10&#45;&gt;4130 -->
<g id="edge47" class="edge"><title>&#45;10&#45;&gt;4130</title>
<path fill="none" stroke="red" stroke-width="0.667195" d="M909.801,-171.072C890.037,-165.993 853.857,-157.042 822.58,-151.196 710.504,-130.248 679.849,-140.076 568.58,-115.196 554.002,-111.936 538.188,-107.264 524.707,-102.925"/>
<polygon fill="red" stroke="red" stroke-width="0.667195" points="525.503,-99.5024 514.91,-99.7002 523.315,-106.151 525.503,-99.5024"/>
</g>
<!-- &#45;11 -->
<g id="node11" class="node"><title>&#45;11</title>
<polygon fill="lightgray" stroke="black" points="163.08,-184.945 134.08,-184.945 134.08,-166.945 163.08,-166.945 163.08,-184.945"/>
<text text-anchor="middle" x="148.58" y="-173.745" font-family="Times,serif" font-size="9.00">&#45;11</text>
</g>
<!-- &#45;11&#45;&gt;0 -->
<g id="edge19" class="edge"><title>&#45;11&#45;&gt;0</title>
<path fill="none" stroke="green" stroke-width="0.53476" d="M134.011,-172.813C107.187,-168.015 50.5444,-153.617 26.5799,-115.196 14.9375,-96.5304 13.7819,-83.5916 26.5799,-65.6985 54.1377,-27.1695 113.302,-18.0844 147.249,-16.1493"/>
<polygon fill="green" stroke="green" stroke-width="0.53476" points="147.461,-19.6437 157.312,-15.744 147.179,-12.6494 147.461,-19.6437"/>
</g>
<!-- 4880 -->
<g id="node32" class="node"><title>4880</title>
<ellipse fill="white" stroke="black" cx="424.58" cy="-90.4472" rx="25" ry="25"/>
<text text-anchor="middle" x="424.58" y="-88.2472" font-family="Times,serif" font-size="9.00">4880</text>
</g>
<!-- &#45;11&#45;&gt;4880 -->
<g id="edge60" class="edge"><title>&#45;11&#45;&gt;4880</title>
<path fill="none" stroke="green" stroke-width="0.198765" d="M163.217,-172.065C208.949,-162.955 348.608,-134.236 390.58,-115.196 392.658,-114.253 394.742,-113.18 396.799,-112.023"/>
<polygon fill="green" stroke="green" stroke-width="0.198765" points="398.917,-114.827 405.544,-106.56 395.208,-108.891 398.917,-114.827"/>
</g>
<!-- &#45;12 -->
<g id="node12" class="node"><title>&#45;12</title>
<polygon fill="lightgray" stroke="black" points="234.08,-99.4472 205.08,-99.4472 205.08,-81.4472 234.08,-81.4472 234.08,-99.4472"/>
<text text-anchor="middle" x="219.58" y="-88.2472" font-family="Times,serif" font-size="9.00">&#45;12</text>
</g>
<!-- &#45;12&#45;&gt;0 -->
<g id="edge9" class="edge"><title>&#45;12&#45;&gt;0</title>
<path fill="none" stroke="red" stroke-width="2.21463" d="M214.371,-81.2897C207.483,-70.504 195.109,-51.1274 185.607,-36.248"/>
<polygon fill="red" stroke="red" stroke-width="2.21463" points="188.468,-34.226 180.136,-27.6817 182.569,-37.9935 188.468,-34.226"/>
</g>
<!-- &#45;12&#45;&gt;1 -->
<g id="edge22" class="edge"><title>&#45;12&#45;&gt;1</title>
<path fill="none" stroke="red" stroke-width="0.553732" stroke-dasharray="1,5" d="M225.445,-81.0721C229.606,-75.7966 235.665,-69.3204 242.58,-65.6985 290.873,-40.403 455.753,-23.6333 519.311,-17.9721"/>
<polygon fill="red" stroke="red" stroke-width="0.553732" points="519.959,-21.429 529.617,-17.0731 519.35,-14.4555 519.959,-21.429"/>
</g>
<!-- &#45;12&#45;&gt;2 -->
<g id="edge35" class="edge"><title>&#45;12&#45;&gt;2</title>
<path fill="none" stroke="green" stroke-width="0.651804" d="M224.986,-81.3394C229.108,-75.8931 235.305,-69.1103 242.58,-65.6985 300.738,-38.4242 762.04,-20.6781 875.458,-16.6993"/>
<polygon fill="green" stroke="green" stroke-width="0.651804" points="875.731,-20.192 885.603,-16.3478 875.488,-13.1962 875.731,-20.192"/>
</g>
<!-- &#45;13 -->
<g id="node13" class="node"><title>&#45;13</title>
<polygon fill="lightgray" stroke="black" points="850.08,-340.191 821.08,-340.191 821.08,-322.191 850.08,-322.191 850.08,-340.191"/>
<text text-anchor="middle" x="835.58" y="-328.991" font-family="Times,serif" font-size="9.00">&#45;13</text>
</g>
<!-- &#45;14 -->
<g id="node14" class="node"><title>&#45;14</title>
<polygon fill="lightgray" stroke="black" points="187.08,-99.4472 158.08,-99.4472 158.08,-81.4472 187.08,-81.4472 187.08,-99.4472"/>
<text text-anchor="middle" x="172.58" y="-88.2472" font-family="Times,serif" font-size="9.00">&#45;14</text>
</g>
<!-- &#45;14&#45;&gt;0 -->
<g id="edge46" class="edge"><title>&#45;14&#45;&gt;0</title>
<path fill="none" stroke="green" stroke-width="0.657706" stroke-dasharray="1,5" d="M172.58,-81.2897C172.58,-71.3882 172.58,-54.2466 172.58,-39.9908"/>
<polygon fill="green" stroke="green" stroke-width="0.657706" points="176.08,-39.8196 172.58,-29.8196 169.08,-39.8196 176.08,-39.8196"/>
</g>
<!-- &#45;14&#45;&gt;1 -->
<g id="edge64" class="edge"><title>&#45;14&#45;&gt;1</title>
<path fill="none" stroke="red" stroke-width="0.253742" stroke-dasharray="1,5" d="M178.419,-81.0225C182.57,-75.726 188.626,-69.2451 195.58,-65.6985 252.639,-36.5963 449.686,-21.7596 519.674,-17.3151"/>
<polygon fill="red" stroke="red" stroke-width="0.253742" points="520.011,-20.8011 529.775,-16.6905 519.578,-13.8145 520.011,-20.8011"/>
</g>
<!-- &#45;15 -->
<g id="node15" class="node"><title>&#45;15</title>
<polygon fill="lightgray" stroke="black" points="1243.08,-99.4472 1214.08,-99.4472 1214.08,-81.4472 1243.08,-81.4472 1243.08,-99.4472"/>
<text text-anchor="middle" x="1228.58" y="-88.2472" font-family="Times,serif" font-size="9.00">&#45;15</text>
</g>
<!-- &#45;15&#45;&gt;2 -->
<g id="edge10" class="edge"><title>&#45;15&#45;&gt;2</title>
<path fill="none" stroke="red" stroke-width="0.902041" d="M1222.39,-81.0708C1218.01,-75.7947 1211.68,-69.3184 1204.58,-65.6985 1110.07,-17.5324 979.531,-14.0783 925.519,-14.966"/>
<polygon fill="red" stroke="red" stroke-width="0.902041" points="925.398,-11.4678 915.482,-15.1981 925.56,-18.4659 925.398,-11.4678"/>
</g>
<!-- &#45;15&#45;&gt;3 -->
<g id="edge57" class="edge"><title>&#45;15&#45;&gt;3</title>
<path fill="none" stroke="green" stroke-width="0.268137" stroke-dasharray="1,5" d="M1236.12,-81.2897C1246.5,-70.0479 1265.51,-49.4731 1279.45,-34.3854"/>
<polygon fill="green" stroke="green" stroke-width="0.268137" points="1282.37,-36.382 1286.59,-26.6619 1277.23,-31.6316 1282.37,-36.382"/>
</g>
<!-- &#45;16 -->
<g id="node16" class="node"><title>&#45;16</title>
<polygon fill="lightgray" stroke="black" points="1014.08,-184.945 985.08,-184.945 985.08,-166.945 1014.08,-166.945 1014.08,-184.945"/>
<text text-anchor="middle" x="999.58" y="-173.745" font-family="Times,serif" font-size="9.00">&#45;16</text>
</g>
<!-- &#45;16&#45;&gt;0 -->
<g id="edge24" class="edge"><title>&#45;16&#45;&gt;0</title>
<path fill="none" stroke="red" stroke-width="0.447747" d="M985.838,-166.731C975.872,-161.235 961.864,-154.437 948.58,-151.196 857.607,-129.004 171.364,-182.81 106.58,-115.196 91.3602,-99.3116 96.775,-85.3915 106.58,-65.6985 115.643,-47.4957 134.875,-34.1778 150.252,-25.9104"/>
<polygon fill="red" stroke="red" stroke-width="0.447747" points="151.836,-29.0314 159.203,-21.4169 148.695,-22.7754 151.836,-29.0314"/>
</g>
<!-- &#45;16&#45;&gt;1 -->
<g id="edge38" class="edge"><title>&#45;16&#45;&gt;1</title>
<path fill="none" stroke="red" stroke-width="1.31986" stroke-dasharray="1,5" d="M985.328,-166.799C975.356,-161.482 961.549,-154.868 948.58,-151.196 815.546,-113.533 760.68,-181.913 639.58,-115.196 614.806,-101.548 619.006,-86.2568 599.58,-65.6985 588.154,-53.6065 574.266,-41.0336 563.304,-31.5397"/>
<polygon fill="red" stroke="red" stroke-width="1.31986" points="565.457,-28.7756 555.581,-24.9388 560.909,-34.0967 565.457,-28.7756"/>
</g>
<!-- &#45;16&#45;&gt;2 -->
<g id="edge54" class="edge"><title>&#45;16&#45;&gt;2</title>
<path fill="none" stroke="red" stroke-width="0.777761" d="M1000.3,-166.718C1001.58,-147.323 1002.31,-97.9491 980.58,-65.6985 967.002,-45.5444 942.257,-31.9984 923.87,-24.1757"/>
<polygon fill="red" stroke="red" stroke-width="0.777761" points="925.005,-20.8607 914.42,-20.413 922.416,-27.3641 925.005,-20.8607"/>
</g>
<!-- &#45;16&#45;&gt;3 -->
<g id="edge6" class="edge"><title>&#45;16&#45;&gt;3</title>
<path fill="none" stroke="red" stroke-width="0.839838" d="M1014.29,-167.102C1024.91,-161.781 1039.77,-155.039 1053.58,-151.196 1113.81,-134.442 1291.3,-162.143 1332.58,-115.196 1353.22,-91.7223 1330.44,-55.4874 1312.89,-33.8761"/>
<polygon fill="red" stroke="red" stroke-width="0.839838" points="1315.44,-31.4642 1306.3,-26.1069 1310.1,-35.995 1315.44,-31.4642"/>
</g>
<!-- 5654 -->
<g id="node33" class="node"><title>5654</title>
<ellipse fill="white" stroke="black" cx="1052.58" cy="-90.4472" rx="25" ry="25"/>
<text text-anchor="middle" x="1052.58" y="-88.2472" font-family="Times,serif" font-size="9.00">5654</text>
</g>
<!-- &#45;16&#45;&gt;5654 -->
<g id="edge50" class="edge"><title>&#45;16&#45;&gt;5654</title>
<path fill="none" stroke="red" stroke-width="0.400744" d="M1004.66,-166.939C1011.39,-156.331 1023.64,-137.043 1034.06,-120.619"/>
<polygon fill="red" stroke="red" stroke-width="0.400744" points="1037.22,-122.181 1039.62,-111.863 1031.31,-118.43 1037.22,-122.181"/>
</g>
<!-- &#45;17 -->
<g id="node17" class="node"><title>&#45;17</title>
<polygon fill="lightgray" stroke="black" points="853.08,-99.4472 824.08,-99.4472 824.08,-81.4472 853.08,-81.4472 853.08,-99.4472"/>
<text text-anchor="middle" x="838.58" y="-88.2472" font-family="Times,serif" font-size="9.00">&#45;17</text>
</g>
<!-- &#45;17&#45;&gt;0 -->
<g id="edge8" class="edge"><title>&#45;17&#45;&gt;0</title>
<path fill="none" stroke="red" stroke-width="0.951152" stroke-dasharray="1,5" d="M823.667,-82.3572C811.336,-76.8343 793.213,-69.4891 776.58,-65.6985 663.477,-39.922 297.106,-21.5668 197.676,-16.972"/>
<polygon fill="red" stroke="red" stroke-width="0.951152" points="197.548,-13.4626 187.399,-16.5025 197.229,-20.4553 197.548,-13.4626"/>
</g>
<!-- &#45;17&#45;&gt;2 -->
<g id="edge32" class="edge"><title>&#45;17&#45;&gt;2</title>
<path fill="none" stroke="green" stroke-width="0.624569" d="M845.452,-81.2897C854.922,-70.0479 872.255,-49.4731 884.965,-34.3854"/>
<polygon fill="green" stroke="green" stroke-width="0.624569" points="887.705,-36.5649 891.471,-26.6619 882.352,-32.0549 887.705,-36.5649"/>
</g>
<!-- &#45;17&#45;&gt;3 -->
<g id="edge61" class="edge"><title>&#45;17&#45;&gt;3</title>
<path fill="none" stroke="green" stroke-width="0.368851" d="M853.395,-85.4634C872.834,-80.3435 908.066,-71.433 938.58,-65.6985 1062.86,-42.3431 1213.31,-24.869 1271.72,-18.4886"/>
<polygon fill="green" stroke="green" stroke-width="0.368851" points="1272.27,-21.9496 1281.84,-17.3946 1271.52,-14.9902 1272.27,-21.9496"/>
</g>
<!-- &#45;18 -->
<g id="node18" class="node"><title>&#45;18</title>
<polygon fill="lightgray" stroke="black" points="803.08,-340.191 774.08,-340.191 774.08,-322.191 803.08,-322.191 803.08,-340.191"/>
<text text-anchor="middle" x="788.58" y="-328.991" font-family="Times,serif" font-size="9.00">&#45;18</text>
</g>
<!-- &#45;18&#45;&gt;2 -->
<g id="edge27" class="edge"><title>&#45;18&#45;&gt;2</title>
<path fill="none" stroke="red" stroke-width="0.355455" stroke-dasharray="1,5" d="M803.2,-324.93C806.273,-323.933 809.513,-322.963 812.58,-322.191 903.561,-299.292 940.226,-334.618 1020.58,-286.191 1061.69,-261.412 1065.98,-244.051 1086.58,-200.693 1112.61,-145.911 1144.09,-113.364 1106.58,-65.6985 1084.32,-37.4032 975.708,-23.2375 925.778,-18.1339"/>
<polygon fill="red" stroke="red" stroke-width="0.355455" points="925.813,-14.6207 915.519,-17.1293 925.131,-21.5874 925.813,-14.6207"/>
</g>
<!-- 6183 -->
<g id="node30" class="node"><title>6183</title>
<ellipse fill="white" stroke="black" cx="788.58" cy="-261.442" rx="25" ry="25"/>
<text text-anchor="middle" x="788.58" y="-259.242" font-family="Times,serif" font-size="9.00">6183</text>
</g>
<!-- &#45;18&#45;&gt;6183 -->
<g id="edge53" class="edge"><title>&#45;18&#45;&gt;6183</title>
<path fill="none" stroke="red" stroke-width="0.452176" d="M788.58,-322.153C788.58,-315.718 788.58,-306.22 788.58,-296.684"/>
<polygon fill="red" stroke="red" stroke-width="0.452176" points="792.08,-296.463 788.58,-286.463 785.08,-296.463 792.08,-296.463"/>
</g>
<!-- 3915 -->
<g id="node31" class="node"><title>3915</title>
<ellipse fill="white" stroke="black" cx="788.58" cy="-175.945" rx="25" ry="25"/>
<text text-anchor="middle" x="788.58" y="-173.745" font-family="Times,serif" font-size="9.00">3915</text>
</g>
<!-- &#45;18&#45;&gt;3915 -->
<g id="edge1" class="edge"><title>&#45;18&#45;&gt;3915</title>
<path fill="none" stroke="red" stroke-width="0.280674" stroke-dasharray="1,5" d="M779.613,-322.13C771.304,-314.003 759.507,-300.626 754.58,-286.191 747.473,-265.372 748.953,-257.96 754.58,-236.693 757.495,-225.677 762.966,-214.566 768.68,-204.964"/>
<polygon fill="red" stroke="red" stroke-width="0.280674" points="771.787,-206.599 774.157,-196.273 765.865,-202.866 771.787,-206.599"/>
</g>
<!-- &#45;19 -->
<g id="node19" class="node"><title>&#45;19</title>
<polygon fill="lightgray" stroke="black" points="720.08,-99.4472 691.08,-99.4472 691.08,-81.4472 720.08,-81.4472 720.08,-99.4472"/>
<text text-anchor="middle" x="705.58" y="-88.2472" font-family="Times,serif" font-size="9.00">&#45;19</text>
</g>
<!-- &#45;19&#45;&gt;1 -->
<g id="edge30" class="edge"><title>&#45;19&#45;&gt;1</title>
<path fill="none" stroke="red" stroke-width="0.888948" d="M698.743,-81.0432C694.293,-76.0231 688.117,-69.8384 681.58,-65.6985 645.555,-42.8834 597.611,-28.5078 569.038,-21.3449"/>
<polygon fill="red" stroke="red" stroke-width="0.888948" points="569.643,-17.8905 559.102,-18.9503 568.003,-24.6957 569.643,-17.8905"/>
</g>
<!-- &#45;19&#45;&gt;2 -->
<g id="edge17" class="edge"><title>&#45;19&#45;&gt;2</title>
<path fill="none" stroke="red" stroke-width="0.108084" d="M711.594,-81.3379C715.819,-76.1745 721.892,-69.7235 728.58,-65.6985 775.932,-37.2012 840.456,-24.2443 875.472,-18.9863"/>
<polygon fill="red" stroke="red" stroke-width="0.108084" points="876.331,-22.4 885.745,-17.5397 875.355,-15.4684 876.331,-22.4"/>
</g>
<!-- &#45;20 -->
<g id="node20" class="node"><title>&#45;20</title>
<polygon fill="lightgray" stroke="black" points="767.08,-99.4472 738.08,-99.4472 738.08,-81.4472 767.08,-81.4472 767.08,-99.4472"/>
<text text-anchor="middle" x="752.58" y="-88.2472" font-family="Times,serif" font-size="9.00">&#45;20</text>
</g>
<!-- &#45;20&#45;&gt;0 -->
<g id="edge33" class="edge"><title>&#45;20&#45;&gt;0</title>
<path fill="none" stroke="green" stroke-width="0.572182" stroke-dasharray="1,5" d="M746.847,-81.367C742.503,-75.9337 736.023,-69.1551 728.58,-65.6985 679.921,-43.1006 299.457,-22.3 197.594,-17.0945"/>
<polygon fill="green" stroke="green" stroke-width="0.572182" points="197.763,-13.5986 187.599,-16.5882 197.409,-20.5896 197.763,-13.5986"/>
</g>
<!-- &#45;20&#45;&gt;1 -->
<g id="edge48" class="edge"><title>&#45;20&#45;&gt;1</title>
<path fill="none" stroke="red" stroke-width="0.219007" d="M746.258,-81.3065C741.831,-76.1298 735.489,-69.6759 728.58,-65.6985 676.853,-35.9196 606.691,-23.3583 569.739,-18.5347"/>
<polygon fill="red" stroke="red" stroke-width="0.219007" points="569.744,-15.0095 559.395,-17.2756 568.898,-21.9583 569.744,-15.0095"/>
</g>
<!-- &#45;20&#45;&gt;2 -->
<g id="edge2" class="edge"><title>&#45;20&#45;&gt;2</title>
<path fill="none" stroke="green" stroke-width="0.127268" stroke-dasharray="1,5" d="M761.219,-81.2452C766.738,-76.3011 774.219,-70.1254 781.58,-65.6985 812.653,-47.0121 852.009,-32.026 876.75,-23.5321"/>
<polygon fill="green" stroke="green" stroke-width="0.127268" points="878.024,-26.7964 886.392,-20.2974 875.798,-20.1599 878.024,-26.7964"/>
</g>
<!-- &#45;20&#45;&gt;3 -->
<g id="edge12" class="edge"><title>&#45;20&#45;&gt;3</title>
<path fill="none" stroke="red" stroke-width="1.34722" d="M767.262,-82.6765C779.82,-77.1887 798.516,-69.7277 815.58,-65.6985 986.208,-25.4087 1198.53,-17.6796 1270.98,-16.1992"/>
<polygon fill="red" stroke="red" stroke-width="1.34722" points="1271.45,-19.6915 1281.38,-16.0112 1271.32,-12.6926 1271.45,-19.6915"/>
</g>
<!-- &#45;21 -->
<g id="node21" class="node"><title>&#45;21</title>
<polygon fill="lightgray" stroke="black" points="1290.08,-99.4472 1261.08,-99.4472 1261.08,-81.4472 1290.08,-81.4472 1290.08,-99.4472"/>
<text text-anchor="middle" x="1275.58" y="-88.2472" font-family="Times,serif" font-size="9.00">&#45;21</text>
</g>
<!-- &#45;21&#45;&gt;2 -->
<g id="edge39" class="edge"><title>&#45;21&#45;&gt;2</title>
<path fill="none" stroke="red" stroke-width="0.155923" d="M1269.74,-81.0198C1265.59,-75.7221 1259.54,-69.241 1252.58,-65.6985 1195.02,-36.3855 996.287,-21.6826 925.699,-17.2941"/>
<polygon fill="red" stroke="red" stroke-width="0.155923" points="925.704,-13.7881 915.511,-16.6776 925.282,-20.7753 925.704,-13.7881"/>
</g>
<!-- &#45;21&#45;&gt;3 -->
<g id="edge37" class="edge"><title>&#45;21&#45;&gt;3</title>
<path fill="none" stroke="green" stroke-width="0.857977" stroke-dasharray="1,5" d="M1277.91,-81.2897C1280.79,-71.1707 1285.84,-53.4899 1289.96,-39.0555"/>
<polygon fill="green" stroke="green" stroke-width="0.857977" points="1293.37,-39.8499 1292.75,-29.2734 1286.64,-37.9292 1293.37,-39.8499"/>
</g>
<!-- &#45;22 -->
<g id="node22" class="node"><title>&#45;22</title>
<polygon fill="lightgray" stroke="black" points="506.08,-184.945 477.08,-184.945 477.08,-166.945 506.08,-166.945 506.08,-184.945"/>
<text text-anchor="middle" x="491.58" y="-173.745" font-family="Times,serif" font-size="9.00">&#45;22</text>
</g>
<!-- &#45;22&#45;&gt;4130 -->
<g id="edge28" class="edge"><title>&#45;22&#45;&gt;4130</title>
<path fill="none" stroke="green" stroke-width="0.154542" d="M491.58,-166.939C491.58,-157.387 491.58,-140.798 491.58,-125.599"/>
<polygon fill="green" stroke="green" stroke-width="0.154542" points="495.08,-125.402 491.58,-115.402 488.08,-125.402 495.08,-125.402"/>
</g>
<!-- &#45;23 -->
<g id="node23" class="node"><title>&#45;23</title>
<polygon fill="lightgray" stroke="black" points="860.08,-270.442 831.08,-270.442 831.08,-252.442 860.08,-252.442 860.08,-270.442"/>
<text text-anchor="middle" x="845.58" y="-259.242" font-family="Times,serif" font-size="9.00">&#45;23</text>
</g>
<!-- &#45;23&#45;&gt;0 -->
<g id="edge3" class="edge"><title>&#45;23&#45;&gt;0</title>
<path fill="none" stroke="red" stroke-width="0.23735" d="M840.199,-252.28C836.089,-246.808 829.896,-240.017 822.58,-236.693 681.174,-172.445 270.27,-254.525 124.58,-200.693 51.7188,-173.772 -32.4012,-128.302 13.5799,-65.6985 44.4637,-23.6499 110.742,-16.1062 147.219,-15.3198"/>
<polygon fill="red" stroke="red" stroke-width="0.23735" points="147.531,-18.8182 157.511,-15.262 147.491,-11.8183 147.531,-18.8182"/>
</g>
<!-- &#45;23&#45;&gt;2 -->
<g id="edge34" class="edge"><title>&#45;23&#45;&gt;2</title>
<path fill="none" stroke="green" stroke-width="0.423483" stroke-dasharray="1,5" d="M847.41,-252.304C854.891,-219.036 883.315,-92.6284 895.252,-39.5455"/>
<polygon fill="green" stroke="green" stroke-width="0.423483" points="898.692,-40.197 897.472,-29.6728 891.863,-38.6613 898.692,-40.197"/>
</g>
<!-- &#45;23&#45;&gt;3 -->
<g id="edge21" class="edge"><title>&#45;23&#45;&gt;3</title>
<path fill="none" stroke="red" stroke-width="0.311229" stroke-dasharray="1,5" d="M860.199,-257.328C939.859,-240.221 1319.17,-156.92 1350.58,-115.196 1363.81,-97.6216 1359.4,-85.8506 1350.58,-65.6985 1343.83,-50.2742 1329.69,-37.5054 1317.57,-28.7531"/>
<polygon fill="red" stroke="red" stroke-width="0.311229" points="1319.48,-25.8203 1309.24,-23.1094 1315.55,-31.6157 1319.48,-25.8203"/>
</g>
<!-- &#45;23&#45;&gt;3915 -->
<g id="edge41" class="edge"><title>&#45;23&#45;&gt;3915</title>
<path fill="none" stroke="green" stroke-width="0.313576" d="M840.115,-252.436C832.759,-241.661 819.288,-221.928 807.964,-205.34"/>
<polygon fill="green" stroke="green" stroke-width="0.313576" points="810.81,-203.302 802.282,-197.016 805.029,-207.248 810.81,-203.302"/>
</g>
<!-- &#45;24 -->
<g id="node24" class="node"><title>&#45;24</title>
<polygon fill="lightgray" stroke="black" points="1011.08,-270.442 982.08,-270.442 982.08,-252.442 1011.08,-252.442 1011.08,-270.442"/>
<text text-anchor="middle" x="996.58" y="-259.242" font-family="Times,serif" font-size="9.00">&#45;24</text>
</g>
<!-- &#45;24&#45;&gt;1 -->
<g id="edge5" class="edge"><title>&#45;24&#45;&gt;1</title>
<path fill="none" stroke="green" stroke-width="0.658513" d="M983.832,-252.426C943.788,-227.247 823.139,-151.399 822.58,-151.196 767.345,-131.121 602.614,-156.269 560.58,-115.196 540.822,-95.8898 539.368,-62.5304 541.144,-39.8443"/>
<polygon fill="green" stroke="green" stroke-width="0.658513" points="544.648,-39.9834 542.209,-29.6732 537.686,-39.2541 544.648,-39.9834"/>
</g>
<!-- &#45;24&#45;&gt;2 -->
<g id="edge18" class="edge"><title>&#45;24&#45;&gt;2</title>
<path fill="none" stroke="red" stroke-width="0.523138" stroke-dasharray="1,5" d="M1006.07,-252.339C1037.81,-224.285 1135.55,-129.525 1086.58,-65.6985 1066.94,-40.1001 971.171,-24.7638 925.243,-18.7676"/>
<polygon fill="red" stroke="red" stroke-width="0.523138" points="925.582,-15.2828 915.223,-17.5051 924.707,-22.2278 925.582,-15.2828"/>
</g>
<!-- &#45;24&#45;&gt;3 -->
<g id="edge31" class="edge"><title>&#45;24&#45;&gt;3</title>
<path fill="none" stroke="green" stroke-width="0.233303" d="M1011.3,-260.709C1072.91,-260.928 1311.31,-252.626 1408.58,-115.196 1421.29,-97.2397 1420.56,-84.1476 1408.58,-65.6985 1389.42,-36.2057 1348.34,-24.0177 1321.61,-19.0826"/>
<polygon fill="green" stroke="green" stroke-width="0.233303" points="1321.91,-15.5851 1311.48,-17.4295 1320.78,-22.4938 1321.91,-15.5851"/>
</g>
<!-- &#45;24&#45;&gt;3915 -->
<g id="edge52" class="edge"><title>&#45;24&#45;&gt;3915</title>
<path fill="none" stroke="red" stroke-width="1.07672" d="M981.954,-254.571C948.7,-241.222 866.763,-208.33 820.935,-189.933"/>
<polygon fill="red" stroke="red" stroke-width="1.07672" points="822.048,-186.608 811.464,-186.131 819.44,-193.105 822.048,-186.608"/>
</g>
<!-- 4130&#45;&gt;0 -->
<g id="edge55" class="edge"><title>4130&#45;&gt;0</title>
<path fill="none" stroke="green" stroke-width="0.608284" d="M472.912,-73.82C468.442,-70.7166 463.525,-67.7785 458.58,-65.6985 367.687,-27.4642 248.681,-18.5551 197.619,-16.4795"/>
<polygon fill="green" stroke="green" stroke-width="0.608284" points="197.631,-12.9779 187.514,-16.1241 197.385,-19.9736 197.631,-12.9779"/>
</g>
<!-- 4130&#45;&gt;2 -->
<g id="edge7" class="edge"><title>4130&#45;&gt;2</title>
<path fill="none" stroke="green" stroke-width="0.509697" d="M515.94,-85.0637C588.568,-71.9947 803.079,-33.3942 875.997,-20.2729"/>
<polygon fill="green" stroke="green" stroke-width="0.509697" points="876.846,-23.6763 886.069,-18.4605 875.607,-16.7869 876.846,-23.6763"/>
</g>
<!-- 6183&#45;&gt;3915 -->
<g id="edge62" class="edge"><title>6183&#45;&gt;3915</title>
<path fill="none" stroke="green" stroke-width="0.224154" d="M788.58,-236.291C788.58,-228.347 788.58,-219.363 788.58,-210.832"/>
<polygon fill="green" stroke="green" stroke-width="0.224154" points="792.08,-210.753 788.58,-200.753 785.08,-210.753 792.08,-210.753"/>
</g>
<!-- 3915&#45;&gt;2 -->
<g id="edge36" class="edge"><title>3915&#45;&gt;2</title>
<path fill="none" stroke="green" stroke-width="0.323344" stroke-dasharray="1,5" d="M789.233,-150.946C791.007,-127.159 796.878,-90.7463 815.58,-65.6985 830.936,-45.1315 857.488,-31.5497 876.839,-23.8298"/>
<polygon fill="green" stroke="green" stroke-width="0.323344" points="878.327,-27.0101 886.468,-20.229 875.875,-20.4536 878.327,-27.0101"/>
</g>
<!-- 3915&#45;&gt;4130 -->
<g id="edge63" class="edge"><title>3915&#45;&gt;4130</title>
<path fill="none" stroke="green" stroke-width="0.970599" d="M763.96,-171.91C717.117,-165.562 612.531,-148.621 530.58,-115.196 527.148,-113.796 523.669,-112.116 520.275,-110.304"/>
<polygon fill="green" stroke="green" stroke-width="0.970599" points="521.991,-107.253 511.577,-105.303 518.502,-113.322 521.991,-107.253"/>
</g>
<!-- 3915&#45;&gt;4880 -->
<g id="edge29" class="edge"><title>3915&#45;&gt;4880</title>
<path fill="none" stroke="green" stroke-width="0.36142" stroke-dasharray="1,5" d="M763.851,-174.184C707.352,-171.671 565.363,-160.918 457.58,-115.196 455.728,-114.41 453.879,-113.505 452.056,-112.517"/>
<polygon fill="green" stroke="green" stroke-width="0.36142" points="453.599,-109.355 443.257,-107.052 449.905,-115.302 453.599,-109.355"/>
</g>
<!-- 5654&#45;&gt;2 -->
<g id="edge16" class="edge"><title>5654&#45;&gt;2</title>
<path fill="none" stroke="red" stroke-width="0.320578" d="M1032.23,-76.3597C1026.3,-72.7427 1019.76,-68.9274 1013.58,-65.6985 983.115,-49.7911 946.502,-34.262 923.382,-24.8732"/>
<polygon fill="red" stroke="red" stroke-width="0.320578" points="924.652,-21.6115 914.068,-21.1272 922.04,-28.1059 924.652,-21.6115"/>
</g>
<!-- 3482&#45;&gt;1 -->
<g id="edge49" class="edge"><title>3482&#45;&gt;1</title>
<path fill="none" stroke="red" stroke-width="0.485037" d="M296.555,-75.5365C302.471,-71.9065 309.103,-68.2903 315.58,-65.6985 386.645,-37.2603 476.929,-23.6988 519.808,-18.5065"/>
<polygon fill="red" stroke="red" stroke-width="0.485037" points="520.355,-21.9666 529.885,-17.3365 519.548,-15.0133 520.355,-21.9666"/>
</g>
</g>
</svg>
