<?xml version="1.0" encoding="utf-8" standalone="no"?>
<!DOCTYPE svg PUBLIC "-//W3C//DTD SVG 1.1//EN"
  "http://www.w3.org/Graphics/SVG/1.1/DTD/svg11.dtd">
<!-- Created with matplotlib (http://matplotlib.org/) -->
<svg height="288pt" version="1.1" viewBox="0 0 432 288" width="432pt" xmlns="http://www.w3.org/2000/svg" xmlns:xlink="http://www.w3.org/1999/xlink">
 <defs>
  <style type="text/css">
*{stroke-linecap:butt;stroke-linejoin:round;stroke-miterlimit:100000;}
  </style>
 </defs>
 <g id="figure_1">
  <g id="patch_1">
   <path d="M 0 288 
L 432 288 
L 432 0 
L 0 0 
z
" style="fill:#ffffff;"/>
  </g>
  <g id="axes_1">
   <g id="patch_2">
    <path d="M 54 252 
L 388.8 252 
L 388.8 28.8 
L 54 28.8 
z
" style="fill:#ffffff;"/>
   </g>
   <g id="line2d_1">
    <path clip-path="url(#pc7ec51eea9)" d="M 54 193.256607 
L 54.837 168.735513 
L 55.674 160.256101 
L 56.511 160.714808 
L 57.348 153.543791 
L 58.185 152.038717 
L 59.022 154.216854 
L 59.859 160.009077 
L 60.696 149.888508 
L 61.533 149.674279 
L 62.37 143.489506 
L 63.207 148.252627 
L 64.044 151.561862 
L 64.881 151.479136 
L 65.718 148.095611 
L 66.555 156.787943 
L 67.392 140.118427 
L 68.229 150.464484 
L 69.066 151.477291 
L 69.903 158.707363 
L 70.74 157.006847 
L 71.577 154.467108 
L 72.414 149.293398 
L 73.251 149.847235 
L 74.088 158.294838 
L 74.925 152.982143 
L 76.599 165.375142 
L 77.436 156.950984 
L 78.273 166.341692 
L 79.11 151.082013 
L 79.947 160.326808 
L 80.784 164.284947 
L 81.621 154.937813 
L 82.458 161.186929 
L 83.295 166.542312 
L 84.132 156.526868 
L 84.969 160.255671 
L 85.806 154.869111 
L 86.643 153.8711 
L 87.48 157.810149 
L 88.317 151.640861 
L 89.154 149.523694 
L 89.991 155.821253 
L 90.828 153.192108 
L 91.665 147.806769 
L 92.502 139.7611 
L 93.339 138.69193 
L 94.176 151.844561 
L 95.013 150.265526 
L 95.85 142.559782 
L 96.687 147.922143 
L 97.524 127.846967 
L 98.361 142.246447 
L 99.198 159.014622 
L 100.035 143.041715 
L 100.872 144.73881 
L 101.709 145.270473 
L 102.546 131.866572 
L 103.383 145.096882 
L 104.22 139.239937 
L 105.057 143.71087 
L 105.894 134.898076 
L 106.731 134.662929 
L 107.568 148.361032 
L 108.405 137.872305 
L 109.242 135.103499 
L 110.079 141.457402 
L 110.916 132.559032 
L 111.753 143.406322 
L 112.59 141.644325 
L 113.427 149.291401 
L 114.264 153.544769 
L 115.101 141.920718 
L 115.938 147.899382 
L 116.775 146.542175 
L 117.612 153.384757 
L 118.449 140.054679 
L 119.286 146.101402 
L 120.123 148.330236 
L 120.96 145.401265 
L 121.797 159.488932 
L 122.634 147.926012 
L 123.471 143.226255 
L 124.308 137.624612 
L 125.145 149.885194 
L 125.982 148.6615 
L 126.819 143.668703 
L 127.656 144.185432 
L 128.493 151.252157 
L 129.33 148.159692 
L 130.167 150.70018 
L 131.004 157.841937 
L 131.841 141.404959 
L 132.678 156.717199 
L 133.515 141.266045 
L 134.352 136.400086 
L 135.189 144.655054 
L 136.026 136.94963 
L 136.863 135.101915 
L 137.7 132.668464 
L 138.537 132.741021 
L 139.374 142.576272 
L 140.211 138.555786 
L 141.048 144.606365 
L 141.885 139.076908 
L 142.722 142.388304 
L 143.559 143.051414 
L 144.396 132.064552 
L 145.233 143.157282 
L 146.07 142.343432 
L 146.907 147.332865 
L 147.744 139.258525 
L 148.581 134.466156 
L 149.418 139.242614 
L 150.255 134.975227 
L 151.092 146.152242 
L 151.929 138.924664 
L 152.766 143.139684 
L 153.603 152.558984 
L 154.44 136.331304 
L 155.277 137.99505 
L 156.114 140.128847 
L 156.951 140.867763 
L 157.788 130.127989 
L 158.625 145.653165 
L 159.462 136.038363 
L 160.299 142.621151 
L 161.973 148.596457 
L 162.81 130.782425 
L 163.647 139.761743 
L 164.484 140.325909 
L 165.321 143.749501 
L 166.158 147.981827 
L 166.995 142.664146 
L 167.832 132.43891 
L 168.669 133.038746 
L 169.506 139.007496 
L 170.343 142.890247 
L 171.18 128.463229 
L 172.017 134.753648 
L 172.854 136.090445 
L 173.691 135.66751 
L 174.528 146.563923 
L 175.365 150.251953 
L 176.202 137.571737 
L 177.039 145.61227 
L 177.876 151.403958 
L 178.713 149.094034 
L 179.55 148.627135 
L 180.387 151.766444 
L 181.224 149.242043 
L 182.061 142.246449 
L 182.898 139.608193 
L 183.735 148.59601 
L 184.572 147.038299 
L 185.409 149.813276 
L 186.246 146.264665 
L 187.083 157.701677 
L 187.92 156.453799 
L 188.757 146.07287 
L 189.594 154.201653 
L 190.431 142.114793 
L 191.268 146.613195 
L 192.105 147.910191 
L 192.942 135.329943 
L 193.779 146.551001 
L 194.616 131.273471 
L 195.453 146.187835 
L 196.29 140.36779 
L 197.127 131.582784 
L 197.964 137.903533 
L 198.801 140.658075 
L 199.638 137.398723 
L 200.475 138.286138 
L 202.149 152.319537 
L 202.986 145.472301 
L 203.823 136.544479 
L 204.66 130.867448 
L 205.497 133.527991 
L 206.334 127.431659 
L 207.171 144.256249 
L 208.008 123.467676 
L 208.845 133.192562 
L 209.682 131.20393 
L 210.519 140.819591 
L 211.356 144.426826 
L 212.193 145.251879 
L 213.03 142.917667 
L 213.867 149.38461 
L 214.704 139.069054 
L 215.541 143.312868 
L 216.378 149.245792 
L 217.215 127.837064 
L 218.052 142.873101 
L 218.889 140.886787 
L 219.726 130.218246 
L 220.563 153.853556 
L 221.4 140.011326 
L 222.237 130.363105 
L 223.074 128.239945 
L 223.911 138.474547 
L 224.748 138.548091 
L 225.585 143.391445 
L 226.422 132.741169 
L 227.259 134.21532 
L 228.096 132.366354 
L 228.933 137.827617 
L 229.77 135.560585 
L 230.607 136.679245 
L 231.444 136.087841 
L 232.281 135.725047 
L 233.118 135.175542 
L 233.955 136.997504 
L 234.792 133.5943 
L 235.629 128.855067 
L 237.303 151.661442 
L 238.14 131.925019 
L 238.977 150.211229 
L 239.814 142.43676 
L 240.651 151.829538 
L 241.488 134.119686 
L 242.325 148.147391 
L 243.162 157.38728 
L 243.999 144.176596 
L 244.836 151.216587 
L 245.673 145.289676 
L 246.51 149.12057 
L 247.347 130.167875 
L 248.184 126.92297 
L 249.021 148.38501 
L 249.858 145.555645 
L 250.695 132.390023 
L 251.532 146.76013 
L 252.369 129.266965 
L 253.206 143.375979 
L 254.043 143.127791 
L 254.88 142.262918 
L 255.717 149.536777 
L 256.554 140.990504 
L 257.391 146.470734 
L 258.228 133.157876 
L 259.065 147.276025 
L 259.902 138.397459 
L 260.739 136.04041 
L 261.576 140.92036 
L 262.413 138.056757 
L 263.25 133.247983 
L 264.087 122.151188 
L 264.924 124.277845 
L 265.761 128.133295 
L 266.598 142.626717 
L 267.435 138.107579 
L 268.272 129.561669 
L 269.109 140.88179 
L 269.946 140.783047 
L 270.783 134.341877 
L 271.62 136.866205 
L 272.457 133.917689 
L 273.294 124.86642 
L 274.131 131.399553 
L 274.968 136.206536 
L 275.805 129.868501 
L 276.642 129.16768 
L 277.479 132.270141 
L 278.316 130.521584 
L 279.153 136.777487 
L 279.99 134.256366 
L 280.827 146.168168 
L 281.664 131.016513 
L 282.501 145.854952 
L 283.338 138.847224 
L 284.175 147.519188 
L 285.012 147.074319 
L 285.849 145.122907 
L 286.686 143.555296 
L 287.523 151.983322 
L 288.36 145.066329 
L 289.197 154.269533 
L 290.034 140.989939 
L 290.871 140.5386 
L 291.708 140.383983 
L 292.545 133.746358 
L 293.382 143.199981 
L 294.219 144.594315 
L 295.056 147.254193 
L 295.893 129.81357 
L 296.73 146.620642 
L 297.567 153.761611 
L 298.404 141.846137 
L 299.241 138.50164 
L 300.078 126.282291 
L 300.915 148.339327 
L 301.752 135.831429 
L 302.589 136.962179 
L 303.426 137.402286 
L 304.263 139.127001 
L 305.1 134.701216 
L 305.937 152.483475 
L 306.774 136.167156 
L 307.611 125.121396 
L 308.448 140.688334 
L 309.285 149.236145 
L 310.122 146.515185 
L 310.959 137.600391 
L 311.796 146.221792 
L 312.633 142.157696 
L 313.47 134.573258 
L 314.307 141.576829 
L 315.144 156.541648 
L 315.981 145.248149 
L 316.818 142.198113 
L 317.655 133.237999 
L 318.492 139.048394 
L 319.329 142.14981 
L 320.166 147.998008 
L 321.003 140.857564 
L 321.84 142.808885 
L 322.677 147.945986 
L 323.514 148.656264 
L 324.351 130.957026 
L 325.188 135.013125 
L 326.025 132.439507 
L 326.862 145.691224 
L 327.699 132.001266 
L 328.536 143.732208 
L 329.373 128.86125 
L 330.21 123.037337 
L 331.047 132.701277 
L 331.884 130.002834 
L 332.721 130.911366 
L 333.558 127.696521 
L 334.395 140.782239 
L 335.232 131.56992 
L 336.069 133.910585 
L 336.906 132.127186 
L 337.743 131.361892 
L 338.58 136.89572 
L 339.417 137.493943 
L 340.254 134.474978 
L 341.091 129.704701 
L 341.928 138.813743 
L 342.765 138.783484 
L 343.602 138.201614 
L 344.439 137.218472 
L 345.276 142.750044 
L 346.113 128.494944 
L 346.95 142.204395 
L 347.787 142.011049 
L 348.624 133.622124 
L 349.461 138.272992 
L 350.298 139.072363 
L 351.135 144.2438 
L 351.972 144.500051 
L 352.809 147.177836 
L 353.646 148.606963 
L 354.483 147.588546 
L 355.32 135.128534 
L 356.157 144.151903 
L 356.994 131.527402 
L 357.831 126.306496 
L 358.668 131.794497 
L 359.505 135.399794 
L 360.342 133.321502 
L 361.179 138.809539 
L 362.016 135.460504 
L 362.853 128.301933 
L 363.69 133.813254 
L 364.527 141.635366 
L 365.364 136.582711 
L 366.201 129.128457 
L 367.038 125.921872 
L 367.875 130.193391 
L 368.712 137.499202 
L 369.549 138.047402 
L 370.386 134.070338 
L 371.223 141.440108 
L 372.06 133.229978 
L 372.897 139.908324 
L 373.734 126.059172 
L 374.571 129.962086 
L 375.408 139.294594 
L 376.245 138.41613 
L 377.082 146.479231 
L 377.919 141.728401 
L 378.756 133.27058 
L 379.593 142.003698 
L 380.43 149.554514 
L 381.267 148.906273 
L 382.104 152.213269 
L 382.941 142.455178 
L 383.778 135.667352 
L 384.615 139.475602 
L 385.452 133.621977 
L 386.289 143.240684 
L 387.126 148.321203 
L 387.963 139.53417 
L 387.963 139.53417 
" style="fill:none;stroke:#0000ff;stroke-linecap:square;"/>
   </g>
   <g id="line2d_2">
    <path clip-path="url(#pc7ec51eea9)" d="M 54 245.506228 
L 54.837 227.949227 
L 55.674 218.797014 
L 56.511 220.150939 
L 57.348 211.898453 
L 58.185 210.17337 
L 59.022 213.208741 
L 59.859 219.343023 
L 60.696 207.913523 
L 61.533 207.867552 
L 62.37 199.980847 
L 63.207 206.401366 
L 64.044 211.208077 
L 64.881 210.772389 
L 65.718 206.80277 
L 66.555 217.538696 
L 67.392 196.789979 
L 68.229 210.328238 
L 69.066 212.057676 
L 69.903 220.086971 
L 70.74 218.377884 
L 71.577 215.434134 
L 72.414 210.459189 
L 73.251 210.383167 
L 74.088 220.586584 
L 74.925 215.159844 
L 76.599 227.486975 
L 77.436 218.681885 
L 78.273 228.389343 
L 79.11 211.557087 
L 79.947 221.769684 
L 80.784 225.300215 
L 81.621 216.028374 
L 82.458 222.851686 
L 83.295 228.002813 
L 84.132 217.373748 
L 84.969 221.67116 
L 85.806 217.609157 
L 86.643 214.72948 
L 87.48 220.188158 
L 88.317 213.576586 
L 89.154 210.767027 
L 89.991 217.462436 
L 90.828 215.275902 
L 91.665 208.745057 
L 92.502 198.436871 
L 93.339 197.697117 
L 94.176 214.59431 
L 95.013 212.140471 
L 95.85 203.069897 
L 96.687 210.581609 
L 97.524 181.602269 
L 99.198 222.580111 
L 100.035 204.278929 
L 100.872 207.383094 
L 101.709 207.51639 
L 102.546 188.951782 
L 103.383 206.630018 
L 104.22 198.278888 
L 105.057 205.107103 
L 105.894 193.18787 
L 106.731 193.732197 
L 107.568 210.29817 
L 108.405 198.175719 
L 109.242 195.291212 
L 110.079 202.564218 
L 110.916 190.995165 
L 111.753 206.105902 
L 112.59 203.51615 
L 113.427 212.393388 
L 114.264 218.050188 
L 115.101 203.606404 
L 115.938 211.242154 
L 116.775 210.474573 
L 117.612 217.844802 
L 118.449 202.386331 
L 119.286 210.246258 
L 120.123 212.956548 
L 120.96 209.596143 
L 121.797 224.419002 
L 122.634 212.092813 
L 123.471 205.804933 
L 124.308 196.837953 
L 125.145 213.80612 
L 125.982 212.875223 
L 126.819 207.16053 
L 127.656 208.392124 
L 128.493 218.010971 
L 129.33 214.989921 
L 130.167 216.582513 
L 131.004 225.061679 
L 131.841 206.43035 
L 132.678 223.757052 
L 133.515 206.270925 
L 134.352 200.132824 
L 135.189 210.863599 
L 136.026 201.788936 
L 136.863 199.174371 
L 137.7 196.052963 
L 138.537 196.863728 
L 139.374 208.677928 
L 140.211 203.661333 
L 141.048 210.890431 
L 141.885 204.193762 
L 142.722 209.589726 
L 143.559 209.796482 
L 144.396 196.235869 
L 145.233 209.137789 
L 146.07 208.887095 
L 146.907 216.017845 
L 147.744 205.934394 
L 148.581 199.692977 
L 149.418 204.908901 
L 150.255 198.827146 
L 151.092 214.470664 
L 151.929 204.796007 
L 152.766 209.021668 
L 153.603 220.835895 
L 154.44 201.028472 
L 155.277 203.004488 
L 156.114 205.425303 
L 156.951 207.075935 
L 157.788 192.031538 
L 158.625 213.660366 
L 159.462 200.349517 
L 160.299 208.681548 
L 161.136 212.329951 
L 161.973 215.120944 
L 162.81 192.642183 
L 163.647 204.098102 
L 164.484 205.616893 
L 166.158 214.544356 
L 166.995 208.331032 
L 167.832 195.507862 
L 168.669 197.028605 
L 169.506 205.297961 
L 170.343 208.341562 
L 171.18 189.325372 
L 172.017 198.482635 
L 172.854 199.726955 
L 173.691 199.828818 
L 174.528 212.96613 
L 175.365 216.674164 
L 176.202 201.675083 
L 177.039 210.955374 
L 177.876 216.76932 
L 178.713 214.391112 
L 179.55 214.630463 
L 180.387 217.25531 
L 181.224 216.323775 
L 182.061 207.371229 
L 182.898 204.763935 
L 183.735 215.688235 
L 184.572 213.488997 
L 185.409 217.1753 
L 186.246 212.978954 
L 187.083 224.829877 
L 187.92 222.798006 
L 188.757 213.19022 
L 189.594 221.296252 
L 190.431 208.169632 
L 191.268 214.251895 
L 192.105 214.423981 
L 192.942 199.647746 
L 193.779 213.734881 
L 194.616 194.873918 
L 195.453 213.660685 
L 196.29 206.601509 
L 197.127 194.428147 
L 197.964 204.015675 
L 198.801 207.560514 
L 199.638 203.200613 
L 200.475 204.610623 
L 201.312 212.9642 
L 202.149 219.688351 
L 202.986 212.667555 
L 203.823 201.815784 
L 204.66 193.990119 
L 205.497 198.976961 
L 206.334 189.893165 
L 207.171 210.754 
L 208.008 183.8635 
L 208.845 198.351804 
L 209.682 194.557142 
L 210.519 207.327541 
L 211.356 210.939106 
L 212.193 212.770317 
L 213.03 210.574812 
L 213.867 217.652137 
L 214.704 205.693881 
L 215.541 209.858287 
L 216.378 217.384312 
L 217.215 191.656358 
L 218.052 209.762815 
L 218.889 207.98195 
L 219.726 196.26753 
L 220.563 221.986755 
L 221.4 207.999683 
L 222.237 196.056386 
L 223.074 193.286115 
L 223.911 206.084077 
L 224.748 205.630839 
L 225.585 210.889922 
L 226.422 199.247657 
L 227.259 200.51032 
L 228.096 197.867853 
L 228.933 205.716807 
L 229.77 202.913346 
L 230.607 204.140007 
L 231.444 203.301173 
L 232.281 202.17359 
L 233.118 202.602222 
L 233.955 204.209796 
L 234.792 199.963159 
L 235.629 194.362124 
L 236.466 210.06977 
L 237.303 221.358435 
L 238.14 198.226661 
L 238.977 219.169521 
L 239.814 210.357137 
L 240.651 220.155752 
L 241.488 199.627961 
L 242.325 217.394219 
L 243.162 225.492549 
L 243.999 212.19721 
L 244.836 219.767895 
L 245.673 214.017641 
L 246.51 218.20122 
L 247.347 195.537621 
L 248.184 191.625927 
L 249.021 216.291267 
L 249.858 214.745333 
L 250.695 198.4096 
L 251.532 215.600989 
L 252.369 195.039299 
L 253.206 211.536495 
L 254.043 211.601322 
L 254.88 210.548156 
L 255.717 218.318175 
L 256.554 208.757247 
L 257.391 214.800078 
L 258.228 198.94725 
L 259.065 216.175811 
L 259.902 205.687818 
L 260.739 202.454163 
L 261.576 208.594172 
L 262.413 205.706576 
L 263.25 198.590756 
L 264.087 182.489877 
L 264.924 186.930346 
L 265.761 193.45277 
L 266.598 210.834991 
L 267.435 205.977637 
L 268.272 196.239766 
L 269.109 209.038603 
L 269.946 208.354228 
L 270.783 201.227757 
L 271.62 203.973783 
L 272.457 199.262459 
L 273.294 188.379677 
L 274.131 198.205796 
L 274.968 204.200345 
L 275.805 196.903628 
L 276.642 195.385842 
L 277.479 199.275877 
L 278.316 196.54229 
L 279.153 204.85019 
L 279.99 201.732888 
L 280.827 215.657127 
L 281.664 197.753384 
L 282.501 214.360085 
L 283.338 206.542195 
L 284.175 216.273524 
L 285.012 217.025981 
L 285.849 214.111678 
L 286.686 212.279473 
L 287.523 221.20393 
L 288.36 212.921276 
L 289.197 221.711933 
L 290.034 206.060332 
L 290.871 207.847551 
L 291.708 207.379756 
L 292.545 200.587703 
L 293.382 211.696665 
L 294.219 212.933516 
L 295.056 216.365211 
L 295.893 196.001037 
L 296.73 214.436973 
L 297.567 222.25481 
L 298.404 209.987258 
L 299.241 206.813917 
L 300.078 192.09887 
L 300.915 217.131107 
L 301.752 203.946802 
L 302.589 205.057295 
L 303.426 205.894124 
L 304.263 208.485754 
L 305.1 202.494214 
L 305.937 221.196041 
L 306.774 203.808228 
L 307.611 189.708996 
L 308.448 209.255729 
L 309.285 218.963725 
L 310.122 215.770067 
L 310.959 206.096027 
L 311.796 215.645529 
L 312.633 210.645934 
L 313.47 201.438587 
L 314.307 210.481855 
L 315.144 225.800392 
L 315.981 212.876441 
L 316.818 210.070414 
L 317.655 198.140909 
L 318.492 204.40396 
L 319.329 209.257035 
L 320.166 215.624743 
L 321.003 209.156225 
L 321.84 211.286515 
L 322.677 216.447876 
L 323.514 216.730001 
L 324.351 195.180395 
L 325.188 200.883793 
L 326.025 198.762735 
L 326.862 214.307153 
L 327.699 198.492829 
L 328.536 211.222504 
L 329.373 193.333844 
L 330.21 185.822501 
L 331.047 199.59975 
L 331.884 195.66573 
L 332.721 196.810287 
L 333.558 192.958793 
L 334.395 208.826611 
L 335.232 197.651295 
L 336.069 199.505293 
L 336.906 198.48119 
L 337.743 198.058498 
L 338.58 204.005464 
L 339.417 205.243371 
L 340.254 201.701231 
L 341.091 195.497185 
L 341.928 206.34908 
L 342.765 205.973483 
L 343.602 204.634129 
L 344.439 203.726172 
L 345.276 210.717859 
L 346.113 193.401154 
L 346.95 209.188853 
L 347.787 208.914795 
L 348.624 199.698138 
L 349.461 205.691263 
L 350.298 206.609445 
L 351.135 212.789794 
L 351.972 212.524374 
L 352.809 215.761581 
L 353.646 216.558075 
L 354.483 215.547302 
L 355.32 201.80458 
L 356.157 211.903473 
L 356.994 197.099034 
L 357.831 190.604381 
L 358.668 197.552501 
L 359.505 202.179826 
L 360.342 198.824583 
L 361.179 207.138418 
L 362.016 202.584448 
L 362.853 192.860227 
L 363.69 200.510384 
L 364.527 209.735153 
L 365.364 204.523749 
L 366.201 194.126552 
L 367.038 190.390491 
L 367.875 195.71862 
L 368.712 204.872955 
L 369.549 206.018173 
L 370.386 200.609737 
L 371.223 209.484662 
L 372.06 200.071378 
L 372.897 207.865206 
L 373.734 190.803773 
L 374.571 196.692898 
L 375.408 207.10051 
L 376.245 207.008597 
L 377.082 215.501749 
L 377.919 209.902542 
L 378.756 199.161113 
L 379.593 210.433985 
L 380.43 217.663297 
L 381.267 217.790258 
L 382.104 219.943707 
L 383.778 201.992683 
L 384.615 207.519347 
L 385.452 199.995884 
L 386.289 211.797727 
L 387.126 216.849518 
L 387.963 206.591348 
L 387.963 206.591348 
" style="fill:none;stroke:#008000;stroke-dasharray:3.000000,5.000000,1.000000,5.000000;stroke-dashoffset:0.0;"/>
   </g>
   <g id="line2d_3">
    <path clip-path="url(#pc7ec51eea9)" d="M 54 141.006986 
L 54.837 109.521798 
L 55.674 101.715187 
L 56.511 101.278677 
L 57.348 95.18913 
L 58.185 93.904064 
L 59.022 95.224967 
L 59.859 100.67513 
L 60.696 91.863493 
L 61.533 91.481005 
L 62.37 86.998165 
L 63.207 90.103888 
L 64.044 91.915648 
L 64.881 92.185883 
L 65.718 89.388453 
L 66.555 96.03719 
L 67.392 83.446875 
L 68.229 90.600731 
L 69.066 90.896907 
L 69.903 97.327754 
L 70.74 95.63581 
L 71.577 93.500083 
L 72.414 88.127607 
L 73.251 89.311304 
L 74.088 96.003091 
L 74.925 90.804442 
L 75.762 97.658978 
L 76.599 103.263309 
L 77.436 95.220082 
L 78.273 104.294042 
L 79.11 90.606938 
L 79.947 98.883932 
L 80.784 103.26968 
L 81.621 93.847252 
L 83.295 105.08181 
L 84.132 95.679987 
L 84.969 98.840182 
L 85.806 92.129064 
L 86.643 93.012719 
L 87.48 95.43214 
L 88.317 89.705135 
L 89.154 88.280361 
L 89.991 94.180071 
L 90.828 91.108314 
L 91.665 86.868481 
L 92.502 81.08533 
L 93.339 79.686742 
L 94.176 89.094812 
L 95.013 88.390581 
L 95.85 82.049667 
L 96.687 85.262678 
L 97.524 74.091664 
L 98.361 81.737722 
L 99.198 95.449133 
L 100.035 81.8045 
L 100.872 82.094526 
L 101.709 83.024555 
L 102.546 74.781362 
L 103.383 83.563746 
L 104.22 80.200987 
L 105.057 82.314637 
L 105.894 76.608282 
L 106.731 75.593661 
L 107.568 86.423894 
L 108.405 77.56889 
L 109.242 74.915786 
L 110.079 80.350586 
L 110.916 74.122898 
L 111.753 80.706742 
L 112.59 79.772499 
L 113.427 86.189413 
L 114.264 89.039351 
L 115.101 80.235032 
L 115.938 84.556611 
L 116.775 82.609776 
L 117.612 88.924713 
L 118.449 77.723027 
L 119.286 81.956545 
L 120.123 83.703924 
L 120.96 81.206388 
L 121.797 94.558862 
L 122.634 83.759212 
L 123.471 80.647578 
L 124.308 78.411271 
L 125.145 85.964268 
L 125.982 84.447777 
L 126.819 80.176877 
L 127.656 79.978741 
L 128.493 84.493342 
L 129.33 81.329464 
L 130.167 84.817846 
L 131.004 90.622196 
L 131.841 76.379568 
L 132.678 89.677346 
L 133.515 76.261165 
L 134.352 72.667347 
L 135.189 78.446508 
L 136.026 72.110323 
L 136.863 71.02946 
L 137.7 69.283965 
L 138.537 68.618313 
L 139.374 76.474616 
L 140.211 73.450239 
L 141.048 78.322298 
L 141.885 73.960053 
L 143.559 76.306345 
L 144.396 67.893234 
L 145.233 77.176776 
L 146.07 75.799769 
L 146.907 78.647885 
L 147.744 72.582656 
L 148.581 69.239336 
L 149.418 73.576327 
L 150.255 71.123308 
L 151.092 77.83382 
L 151.929 73.053322 
L 152.766 77.2577 
L 153.603 84.282074 
L 154.44 71.634135 
L 155.277 72.985613 
L 156.114 74.832391 
L 156.951 74.659592 
L 157.788 68.22444 
L 158.625 77.645963 
L 159.462 71.727208 
L 160.299 76.560753 
L 161.973 82.07197 
L 162.81 68.922667 
L 163.647 75.425385 
L 164.484 75.034926 
L 165.321 77.61504 
L 166.158 81.419299 
L 166.995 76.99726 
L 167.832 69.369958 
L 168.669 69.048888 
L 169.506 72.717032 
L 170.343 77.438931 
L 171.18 67.601086 
L 172.017 71.02466 
L 172.854 72.453935 
L 173.691 71.506201 
L 174.528 80.161716 
L 175.365 83.829742 
L 176.202 73.468391 
L 177.039 80.269166 
L 177.876 86.038595 
L 178.713 83.796956 
L 179.55 82.623807 
L 180.387 86.277578 
L 181.224 82.160311 
L 182.061 77.121669 
L 182.898 74.452452 
L 183.735 81.503786 
L 184.572 80.5876 
L 185.409 82.451251 
L 186.246 79.550376 
L 187.083 90.573478 
L 187.92 90.109591 
L 188.757 78.95552 
L 189.594 87.107053 
L 190.431 76.059954 
L 191.268 78.974495 
L 192.105 81.3964 
L 192.942 71.01214 
L 193.779 79.367121 
L 194.616 67.673023 
L 195.453 78.714985 
L 196.29 74.134071 
L 197.127 68.737421 
L 197.964 71.791391 
L 198.801 73.755636 
L 199.638 71.596833 
L 200.475 71.961653 
L 201.312 77.533203 
L 202.149 84.950723 
L 203.823 71.273173 
L 204.66 67.744777 
L 205.497 68.079021 
L 206.334 64.970153 
L 207.171 77.758497 
L 208.008 63.071851 
L 208.845 68.03332 
L 209.682 67.850719 
L 210.519 74.311642 
L 211.356 77.914547 
L 212.193 77.733441 
L 213.03 75.260523 
L 213.867 81.117083 
L 214.704 72.444227 
L 216.378 81.107271 
L 217.215 64.01777 
L 218.052 75.983387 
L 218.889 73.791624 
L 219.726 64.168962 
L 220.563 85.720356 
L 221.4 72.022968 
L 222.237 64.669823 
L 223.074 63.193775 
L 223.911 70.865016 
L 224.748 71.465343 
L 225.585 75.892968 
L 226.422 66.23468 
L 227.259 67.92032 
L 228.096 66.864854 
L 228.933 69.938426 
L 229.77 68.207824 
L 230.607 69.218483 
L 231.444 68.874509 
L 232.281 69.276503 
L 233.118 67.748863 
L 233.955 69.785211 
L 234.792 67.22544 
L 235.629 63.34801 
L 236.466 72.032554 
L 237.303 81.96445 
L 238.14 65.623378 
L 238.977 81.252936 
L 239.814 74.516382 
L 240.651 83.503325 
L 241.488 68.61141 
L 243.162 89.28201 
L 243.999 76.155982 
L 244.836 82.66528 
L 245.673 76.561712 
L 246.51 80.03992 
L 247.347 64.798129 
L 248.184 62.220012 
L 249.021 80.478753 
L 249.858 76.365958 
L 250.695 66.370446 
L 251.532 77.919271 
L 252.369 63.494631 
L 253.206 75.215464 
L 254.88 73.977681 
L 255.717 80.755378 
L 256.554 73.223761 
L 257.391 78.14139 
L 258.228 67.368502 
L 259.065 78.376239 
L 259.902 71.107099 
L 260.739 69.626657 
L 261.576 73.246549 
L 263.25 67.90521 
L 264.087 61.812499 
L 264.924 61.625343 
L 265.761 62.81382 
L 266.598 74.418443 
L 267.435 70.23752 
L 268.272 62.883572 
L 269.109 72.724978 
L 269.946 73.211865 
L 270.783 67.455996 
L 271.62 69.758626 
L 272.457 68.572918 
L 273.294 61.353163 
L 274.968 68.212727 
L 275.805 62.833375 
L 276.642 62.949519 
L 277.479 65.264406 
L 278.316 64.500878 
L 279.153 68.704783 
L 279.99 66.779845 
L 280.827 76.679209 
L 281.664 64.279642 
L 282.501 77.349819 
L 283.338 71.152253 
L 284.175 78.764852 
L 285.012 77.122656 
L 285.849 76.134135 
L 286.686 74.83112 
L 287.523 82.762714 
L 288.36 77.211381 
L 289.197 86.827132 
L 290.034 75.919546 
L 290.871 73.22965 
L 291.708 73.38821 
L 292.545 66.905012 
L 293.382 74.703296 
L 294.219 76.255114 
L 295.056 78.143175 
L 295.893 63.626104 
L 296.73 78.80431 
L 297.567 85.268411 
L 298.404 73.705015 
L 299.241 70.189364 
L 300.078 60.465711 
L 300.915 79.547547 
L 301.752 67.716056 
L 302.589 68.867063 
L 303.426 68.910449 
L 304.263 69.768248 
L 305.1 66.908218 
L 305.937 83.770908 
L 306.774 68.526084 
L 307.611 60.533797 
L 308.448 72.12094 
L 309.285 79.508565 
L 310.122 77.260302 
L 310.959 69.104756 
L 311.796 76.798056 
L 312.633 73.669459 
L 313.47 67.707928 
L 314.307 72.671802 
L 315.144 87.282903 
L 315.981 77.619858 
L 316.818 74.325811 
L 317.655 68.335089 
L 318.492 73.692827 
L 319.329 75.042584 
L 320.166 80.371273 
L 321.003 72.558903 
L 321.84 74.331254 
L 322.677 79.444096 
L 323.514 80.582527 
L 324.351 66.733657 
L 325.188 69.142457 
L 326.025 66.116279 
L 326.862 77.075296 
L 327.699 65.509703 
L 328.536 76.241912 
L 329.373 64.388656 
L 330.21 60.252174 
L 331.047 65.802804 
L 331.884 64.339939 
L 332.721 65.012445 
L 333.558 62.434248 
L 334.395 72.737866 
L 335.232 65.488544 
L 336.069 68.315876 
L 336.906 65.773183 
L 337.743 64.665287 
L 338.58 69.785977 
L 339.417 69.744515 
L 340.254 67.248725 
L 341.091 63.912218 
L 341.928 71.278406 
L 342.765 71.593485 
L 343.602 71.769099 
L 344.439 70.710772 
L 345.276 74.78223 
L 346.113 63.588735 
L 346.95 75.219936 
L 347.787 75.107303 
L 348.624 67.546111 
L 349.461 70.854721 
L 350.298 71.535281 
L 351.135 75.697806 
L 351.972 76.475727 
L 353.646 80.655851 
L 354.483 79.629789 
L 355.32 68.452487 
L 356.157 76.400334 
L 356.994 65.955769 
L 357.831 62.008611 
L 358.668 66.036493 
L 359.505 68.619762 
L 360.342 67.818421 
L 361.179 70.48066 
L 362.016 68.336561 
L 362.853 63.743638 
L 363.69 67.116124 
L 364.527 73.53558 
L 366.201 64.130362 
L 367.038 61.453252 
L 367.875 64.668161 
L 368.712 70.12545 
L 369.549 70.07663 
L 370.386 67.53094 
L 371.223 73.395554 
L 372.06 66.388578 
L 372.897 71.951442 
L 373.734 61.314571 
L 374.571 63.231274 
L 375.408 71.488679 
L 376.245 69.823662 
L 377.082 77.456713 
L 377.919 73.55426 
L 378.756 67.380048 
L 379.593 73.573411 
L 380.43 81.44573 
L 381.267 80.022288 
L 382.104 84.482832 
L 382.941 74.548849 
L 383.778 69.34202 
L 384.615 71.431858 
L 385.452 67.248069 
L 386.289 74.683642 
L 387.126 79.792889 
L 387.963 72.476992 
L 387.963 72.476992 
" style="fill:none;stroke:#008000;stroke-dasharray:3.000000,5.000000,1.000000,5.000000;stroke-dashoffset:0.0;"/>
   </g>
   <g id="line2d_4">
    <path clip-path="url(#pc7ec51eea9)" d="M 54 101.40423 
L 54.837 96.261365 
L 55.674 97.681364 
L 56.511 96.835708 
L 57.348 96.994214 
L 58.185 97.964494 
L 59.022 96.733765 
L 59.859 97.251346 
L 60.696 94.703556 
L 62.37 94.510608 
L 63.207 92.451776 
L 64.044 91.660458 
L 64.881 83.280172 
L 65.718 88.33102 
L 66.555 84.331272 
L 67.392 85.557028 
L 68.229 86.46146 
L 69.066 83.883189 
L 69.903 84.010604 
L 70.74 82.519128 
L 71.577 82.743125 
L 72.414 81.976895 
L 73.251 81.815181 
L 74.088 75.236213 
L 74.925 76.511635 
L 75.762 80.84945 
L 76.599 80.273183 
L 77.436 82.616937 
L 78.273 81.876901 
L 79.11 78.767078 
L 79.947 84.031916 
L 80.784 82.702982 
L 81.621 81.816111 
L 82.458 79.202063 
L 83.295 78.32573 
L 84.132 79.387571 
L 84.969 83.032122 
L 85.806 78.46559 
L 86.643 79.192887 
L 87.48 77.56996 
L 88.317 78.557377 
L 89.154 78.387483 
L 89.991 79.348227 
L 90.828 78.471846 
L 91.665 79.105966 
L 92.502 77.98867 
L 93.339 75.839402 
L 94.176 76.639852 
L 95.013 76.865708 
L 95.85 82.090986 
L 96.687 80.619904 
L 97.524 77.931092 
L 98.361 79.310384 
L 99.198 77.521434 
L 100.035 81.145584 
L 100.872 78.795879 
L 101.709 79.908372 
L 102.546 79.382266 
L 103.383 76.384007 
L 104.22 78.429001 
L 105.057 77.734048 
L 105.894 78.893167 
L 106.731 77.476757 
L 107.568 77.392793 
L 108.405 77.075123 
L 109.242 76.377105 
L 110.079 75.289032 
L 110.916 77.125077 
L 111.753 75.165206 
L 112.59 72.363716 
L 113.427 77.019986 
L 114.264 74.464612 
L 115.101 75.245222 
L 115.938 76.904701 
L 116.775 75.32011 
L 117.612 76.79929 
L 118.449 74.496424 
L 119.286 75.806227 
L 120.123 74.213863 
L 120.96 75.651267 
L 121.797 72.94353 
L 122.634 74.891758 
L 123.471 74.597104 
L 124.308 76.265634 
L 125.145 76.366266 
L 125.982 74.572444 
L 126.819 74.960495 
L 127.656 74.56517 
L 128.493 74.712095 
L 129.33 73.972503 
L 130.167 72.875403 
L 131.004 76.20803 
L 131.841 76.028835 
L 132.678 76.968844 
L 133.515 76.280031 
L 134.352 76.763079 
L 135.189 76.254643 
L 136.026 76.590265 
L 136.863 76.745753 
L 138.537 74.165322 
L 139.374 77.450303 
L 140.211 76.151641 
L 141.048 77.608821 
L 141.885 75.718533 
L 142.722 76.759296 
L 143.559 75.646035 
L 144.396 75.984981 
L 145.233 75.573626 
L 146.07 76.881818 
L 146.907 75.964136 
L 147.744 74.852425 
L 148.581 76.289755 
L 149.418 74.488049 
L 150.255 74.124105 
L 151.092 73.539247 
L 151.929 74.687575 
L 152.766 74.806666 
L 153.603 73.854239 
L 154.44 73.825292 
L 155.277 74.094084 
L 156.114 74.849799 
L 156.951 74.446006 
L 157.788 74.353222 
L 158.625 74.143605 
L 159.462 73.111365 
L 160.299 75.60027 
L 161.136 73.579811 
L 161.973 75.104867 
L 162.81 73.890107 
L 163.647 74.791702 
L 164.484 74.2352 
L 165.321 75.027615 
L 166.158 73.736896 
L 166.995 74.828799 
L 167.832 73.435277 
L 168.669 72.788995 
L 169.506 73.493578 
L 170.343 74.906001 
L 171.18 71.912917 
L 172.017 73.49789 
L 172.854 75.722344 
L 173.691 74.230482 
L 174.528 75.653454 
L 175.365 76.685758 
L 176.202 74.530614 
L 177.039 73.93304 
L 177.876 75.423618 
L 178.713 74.942607 
L 179.55 75.241162 
L 180.387 74.931682 
L 181.224 76.177821 
L 182.061 75.357749 
L 182.898 76.266838 
L 183.735 75.213749 
L 184.572 75.152733 
L 185.409 75.519247 
L 186.246 74.039108 
L 187.083 74.367062 
L 187.92 76.909267 
L 188.757 75.077333 
L 189.594 74.058622 
L 190.431 75.825423 
L 191.268 75.204053 
L 192.105 72.027745 
L 192.942 75.831866 
L 193.779 75.232945 
L 194.616 76.380574 
L 195.453 75.544417 
L 196.29 76.034694 
L 197.127 75.405934 
L 197.964 74.969445 
L 198.801 76.501814 
L 199.638 73.025041 
L 200.475 75.113697 
L 201.312 74.495718 
L 202.149 77.237506 
L 202.986 74.345942 
L 204.66 75.38222 
L 205.497 76.118694 
L 206.334 74.951761 
L 207.171 76.314901 
L 208.008 75.599161 
L 208.845 75.166238 
L 209.682 74.604555 
L 210.519 72.828094 
L 211.356 74.486428 
L 212.193 74.850121 
L 213.03 74.975565 
L 213.867 74.009135 
L 214.704 70.472055 
L 215.541 74.407447 
L 216.378 73.895527 
L 218.052 75.926704 
L 218.889 72.729844 
L 219.726 70.614566 
L 220.563 69.091142 
L 221.4 72.015994 
L 222.237 71.142735 
L 223.074 74.549701 
L 223.911 72.236409 
L 224.748 71.725499 
L 225.585 70.042359 
L 226.422 70.292988 
L 227.259 71.049989 
L 228.096 70.793172 
L 228.933 71.91343 
L 229.77 69.584456 
L 230.607 71.702951 
L 231.444 70.458368 
L 232.281 69.921957 
L 233.118 69.860759 
L 233.955 72.908015 
L 234.792 70.242841 
L 235.629 69.576897 
L 236.466 70.801051 
L 237.303 68.077459 
L 238.14 70.4678 
L 238.977 71.169322 
L 239.814 72.088034 
L 240.651 72.454719 
L 241.488 72.121625 
L 242.325 74.021969 
L 243.162 74.037174 
L 243.999 72.073094 
L 244.836 72.473384 
L 245.673 71.159326 
L 246.51 69.183779 
L 247.347 70.864111 
L 248.184 73.070409 
L 249.021 70.657847 
L 249.858 70.748316 
L 250.695 72.046769 
L 251.532 69.601616 
L 252.369 69.066697 
L 253.206 72.685899 
L 254.043 72.871272 
L 254.88 72.560197 
L 255.717 73.009939 
L 256.554 72.029158 
L 257.391 73.652289 
L 258.228 73.174299 
L 259.065 71.939293 
L 259.902 72.96639 
L 260.739 72.797627 
L 261.576 73.330435 
L 262.413 71.386922 
L 263.25 75.631851 
L 264.087 74.959463 
L 264.924 75.32318 
L 265.761 74.706827 
L 266.598 75.046645 
L 267.435 74.458744 
L 268.272 72.319125 
L 269.109 75.215694 
L 269.946 72.967441 
L 270.783 72.604589 
L 271.62 73.069504 
L 272.457 73.719867 
L 273.294 72.375666 
L 274.131 72.3836 
L 274.968 72.650571 
L 275.805 72.263519 
L 276.642 72.673939 
L 277.479 73.562567 
L 279.153 72.943768 
L 279.99 70.635148 
L 280.827 72.380863 
L 281.664 68.375266 
L 282.501 70.704385 
L 283.338 71.045703 
L 284.175 69.023367 
L 285.012 71.968928 
L 285.849 71.277231 
L 286.686 70.197431 
L 287.523 71.089343 
L 288.36 73.029807 
L 289.197 71.568176 
L 290.034 74.145586 
L 290.871 73.467008 
L 291.708 73.062873 
L 292.545 72.527592 
L 293.382 71.492099 
L 294.219 74.405952 
L 295.056 72.557487 
L 295.893 73.826806 
L 296.73 73.048328 
L 297.567 73.567429 
L 298.404 72.161653 
L 300.078 72.84872 
L 300.915 75.844564 
L 301.752 74.643089 
L 302.589 73.778997 
L 303.426 74.096275 
L 304.263 69.507674 
L 305.1 72.621185 
L 305.937 73.073187 
L 306.774 72.431413 
L 307.611 71.424612 
L 308.448 73.690518 
L 309.285 69.967691 
L 310.122 72.54984 
L 310.959 72.58635 
L 311.796 73.172757 
L 312.633 72.629395 
L 313.47 73.474357 
L 314.307 71.287328 
L 315.144 73.576189 
L 316.818 72.775051 
L 317.655 72.99388 
L 318.492 75.260642 
L 319.329 74.282841 
L 320.166 72.95773 
L 321.003 74.359188 
L 321.84 75.188856 
L 322.677 70.719711 
L 323.514 73.20128 
L 324.351 72.992961 
L 325.188 71.672526 
L 326.025 70.88263 
L 326.862 72.74358 
L 327.699 72.573643 
L 328.536 72.932725 
L 329.373 72.355874 
L 330.21 74.108003 
L 331.047 73.750277 
L 332.721 71.560576 
L 333.558 71.701684 
L 334.395 68.474289 
L 335.232 73.030318 
L 336.069 71.058514 
L 336.906 73.740943 
L 337.743 74.253499 
L 338.58 73.260645 
L 339.417 72.874797 
L 340.254 71.245684 
L 341.091 71.66922 
L 341.928 72.223958 
L 342.765 74.457684 
L 343.602 73.643417 
L 344.439 75.204826 
L 345.276 70.33169 
L 346.113 69.78773 
L 346.95 70.808083 
L 347.787 71.092205 
L 348.624 70.103273 
L 349.461 69.860215 
L 350.298 72.552865 
L 351.135 73.769869 
L 351.972 72.494996 
L 352.809 75.156224 
L 353.646 75.801951 
L 354.483 74.648125 
L 355.32 75.160113 
L 356.157 75.176117 
L 356.994 75.769396 
L 357.831 73.187839 
L 358.668 74.591135 
L 359.505 73.674883 
L 360.342 70.921188 
L 361.179 74.841696 
L 362.016 73.776089 
L 362.853 75.889842 
L 364.527 73.871431 
L 365.364 75.183363 
L 366.201 70.194964 
L 367.038 74.325162 
L 367.875 73.943781 
L 368.712 75.529119 
L 369.549 74.628913 
L 370.386 75.236859 
L 371.223 74.522285 
L 372.06 68.768189 
L 372.897 74.304576 
L 373.734 73.941577 
L 374.571 75.436264 
L 375.408 74.575273 
L 376.245 72.547964 
L 377.082 74.336245 
L 377.919 74.197929 
L 378.756 75.0607 
L 379.593 75.508724 
L 380.43 73.635132 
L 381.267 74.116721 
L 382.104 70.765728 
L 382.941 72.060357 
L 383.778 74.416341 
L 384.615 71.21694 
L 385.452 73.052965 
L 386.289 70.849888 
L 387.126 71.502644 
L 387.963 74.10038 
L 387.963 74.10038 
" style="fill:none;stroke:#ff0000;stroke-linecap:square;"/>
   </g>
   <g id="patch_3">
    <path d="M 54 28.8 
L 388.8 28.8 
" style="fill:none;stroke:#000000;stroke-linecap:square;stroke-linejoin:miter;"/>
   </g>
   <g id="patch_4">
    <path d="M 388.8 252 
L 388.8 28.8 
" style="fill:none;stroke:#000000;stroke-linecap:square;stroke-linejoin:miter;"/>
   </g>
   <g id="patch_5">
    <path d="M 54 252 
L 388.8 252 
" style="fill:none;stroke:#000000;stroke-linecap:square;stroke-linejoin:miter;"/>
   </g>
   <g id="patch_6">
    <path d="M 54 252 
L 54 28.8 
" style="fill:none;stroke:#000000;stroke-linecap:square;stroke-linejoin:miter;"/>
   </g>
   <g id="matplotlib.axis_1">
    <g id="xtick_1">
     <g id="line2d_5">
      <path clip-path="url(#pc7ec51eea9)" d="M 54 252 
L 54 28.8 
" style="fill:none;stroke:#000000;stroke-dasharray:1.000000,3.000000;stroke-dashoffset:0.0;stroke-width:0.5;"/>
     </g>
     <g id="line2d_6">
      <defs>
       <path d="M 0 0 
L 0 -4 
" id="m0bf8767e32" style="stroke:#000000;stroke-width:0.5;"/>
      </defs>
      <g>
       <use style="stroke:#000000;stroke-width:0.5;" x="54.0" xlink:href="#m0bf8767e32" y="252.0"/>
      </g>
     </g>
     <g id="line2d_7">
      <defs>
       <path d="M 0 0 
L 0 4 
" id="m58fe57e747" style="stroke:#000000;stroke-width:0.5;"/>
      </defs>
      <g>
       <use style="stroke:#000000;stroke-width:0.5;" x="54.0" xlink:href="#m58fe57e747" y="28.8"/>
      </g>
     </g>
     <g id="text_1">
      <!-- 0 -->
      <defs>
       <path d="M 31.78125 66.40625 
Q 24.171875 66.40625 20.328125 58.90625 
Q 16.5 51.421875 16.5 36.375 
Q 16.5 21.390625 20.328125 13.890625 
Q 24.171875 6.390625 31.78125 6.390625 
Q 39.453125 6.390625 43.28125 13.890625 
Q 47.125 21.390625 47.125 36.375 
Q 47.125 51.421875 43.28125 58.90625 
Q 39.453125 66.40625 31.78125 66.40625 
M 31.78125 74.21875 
Q 44.046875 74.21875 50.515625 64.515625 
Q 56.984375 54.828125 56.984375 36.375 
Q 56.984375 17.96875 50.515625 8.265625 
Q 44.046875 -1.421875 31.78125 -1.421875 
Q 19.53125 -1.421875 13.0625 8.265625 
Q 6.59375 17.96875 6.59375 36.375 
Q 6.59375 54.828125 13.0625 64.515625 
Q 19.53125 74.21875 31.78125 74.21875 
" id="BitstreamVeraSans-Roman-30"/>
      </defs>
      <g transform="translate(50.81875 263.5984375)scale(0.1 -0.1)">
       <use xlink:href="#BitstreamVeraSans-Roman-30"/>
      </g>
     </g>
    </g>
    <g id="xtick_2">
     <g id="line2d_8">
      <path clip-path="url(#pc7ec51eea9)" d="M 95.85 252 
L 95.85 28.8 
" style="fill:none;stroke:#000000;stroke-dasharray:1.000000,3.000000;stroke-dashoffset:0.0;stroke-width:0.5;"/>
     </g>
     <g id="line2d_9">
      <g>
       <use style="stroke:#000000;stroke-width:0.5;" x="95.85" xlink:href="#m0bf8767e32" y="252.0"/>
      </g>
     </g>
     <g id="line2d_10">
      <g>
       <use style="stroke:#000000;stroke-width:0.5;" x="95.85" xlink:href="#m58fe57e747" y="28.8"/>
      </g>
     </g>
     <g id="text_2">
      <!-- 50 -->
      <defs>
       <path d="M 10.796875 72.90625 
L 49.515625 72.90625 
L 49.515625 64.59375 
L 19.828125 64.59375 
L 19.828125 46.734375 
Q 21.96875 47.46875 24.109375 47.828125 
Q 26.265625 48.1875 28.421875 48.1875 
Q 40.625 48.1875 47.75 41.5 
Q 54.890625 34.8125 54.890625 23.390625 
Q 54.890625 11.625 47.5625 5.09375 
Q 40.234375 -1.421875 26.90625 -1.421875 
Q 22.3125 -1.421875 17.546875 -0.640625 
Q 12.796875 0.140625 7.71875 1.703125 
L 7.71875 11.625 
Q 12.109375 9.234375 16.796875 8.0625 
Q 21.484375 6.890625 26.703125 6.890625 
Q 35.15625 6.890625 40.078125 11.328125 
Q 45.015625 15.765625 45.015625 23.390625 
Q 45.015625 31 40.078125 35.4375 
Q 35.15625 39.890625 26.703125 39.890625 
Q 22.75 39.890625 18.8125 39.015625 
Q 14.890625 38.140625 10.796875 36.28125 
z
" id="BitstreamVeraSans-Roman-35"/>
      </defs>
      <g transform="translate(89.4875 263.5984375)scale(0.1 -0.1)">
       <use xlink:href="#BitstreamVeraSans-Roman-35"/>
       <use x="63.623046875" xlink:href="#BitstreamVeraSans-Roman-30"/>
      </g>
     </g>
    </g>
    <g id="xtick_3">
     <g id="line2d_11">
      <path clip-path="url(#pc7ec51eea9)" d="M 137.7 252 
L 137.7 28.8 
" style="fill:none;stroke:#000000;stroke-dasharray:1.000000,3.000000;stroke-dashoffset:0.0;stroke-width:0.5;"/>
     </g>
     <g id="line2d_12">
      <g>
       <use style="stroke:#000000;stroke-width:0.5;" x="137.7" xlink:href="#m0bf8767e32" y="252.0"/>
      </g>
     </g>
     <g id="line2d_13">
      <g>
       <use style="stroke:#000000;stroke-width:0.5;" x="137.7" xlink:href="#m58fe57e747" y="28.8"/>
      </g>
     </g>
     <g id="text_3">
      <!-- 100 -->
      <defs>
       <path d="M 12.40625 8.296875 
L 28.515625 8.296875 
L 28.515625 63.921875 
L 10.984375 60.40625 
L 10.984375 69.390625 
L 28.421875 72.90625 
L 38.28125 72.90625 
L 38.28125 8.296875 
L 54.390625 8.296875 
L 54.390625 0 
L 12.40625 0 
z
" id="BitstreamVeraSans-Roman-31"/>
      </defs>
      <g transform="translate(128.15625 263.5984375)scale(0.1 -0.1)">
       <use xlink:href="#BitstreamVeraSans-Roman-31"/>
       <use x="63.623046875" xlink:href="#BitstreamVeraSans-Roman-30"/>
       <use x="127.24609375" xlink:href="#BitstreamVeraSans-Roman-30"/>
      </g>
     </g>
    </g>
    <g id="xtick_4">
     <g id="line2d_14">
      <path clip-path="url(#pc7ec51eea9)" d="M 179.55 252 
L 179.55 28.8 
" style="fill:none;stroke:#000000;stroke-dasharray:1.000000,3.000000;stroke-dashoffset:0.0;stroke-width:0.5;"/>
     </g>
     <g id="line2d_15">
      <g>
       <use style="stroke:#000000;stroke-width:0.5;" x="179.55" xlink:href="#m0bf8767e32" y="252.0"/>
      </g>
     </g>
     <g id="line2d_16">
      <g>
       <use style="stroke:#000000;stroke-width:0.5;" x="179.55" xlink:href="#m58fe57e747" y="28.8"/>
      </g>
     </g>
     <g id="text_4">
      <!-- 150 -->
      <g transform="translate(170.00625 263.5984375)scale(0.1 -0.1)">
       <use xlink:href="#BitstreamVeraSans-Roman-31"/>
       <use x="63.623046875" xlink:href="#BitstreamVeraSans-Roman-35"/>
       <use x="127.24609375" xlink:href="#BitstreamVeraSans-Roman-30"/>
      </g>
     </g>
    </g>
    <g id="xtick_5">
     <g id="line2d_17">
      <path clip-path="url(#pc7ec51eea9)" d="M 221.4 252 
L 221.4 28.8 
" style="fill:none;stroke:#000000;stroke-dasharray:1.000000,3.000000;stroke-dashoffset:0.0;stroke-width:0.5;"/>
     </g>
     <g id="line2d_18">
      <g>
       <use style="stroke:#000000;stroke-width:0.5;" x="221.4" xlink:href="#m0bf8767e32" y="252.0"/>
      </g>
     </g>
     <g id="line2d_19">
      <g>
       <use style="stroke:#000000;stroke-width:0.5;" x="221.4" xlink:href="#m58fe57e747" y="28.8"/>
      </g>
     </g>
     <g id="text_5">
      <!-- 200 -->
      <defs>
       <path d="M 19.1875 8.296875 
L 53.609375 8.296875 
L 53.609375 0 
L 7.328125 0 
L 7.328125 8.296875 
Q 12.9375 14.109375 22.625 23.890625 
Q 32.328125 33.6875 34.8125 36.53125 
Q 39.546875 41.84375 41.421875 45.53125 
Q 43.3125 49.21875 43.3125 52.78125 
Q 43.3125 58.59375 39.234375 62.25 
Q 35.15625 65.921875 28.609375 65.921875 
Q 23.96875 65.921875 18.8125 64.3125 
Q 13.671875 62.703125 7.8125 59.421875 
L 7.8125 69.390625 
Q 13.765625 71.78125 18.9375 73 
Q 24.125 74.21875 28.421875 74.21875 
Q 39.75 74.21875 46.484375 68.546875 
Q 53.21875 62.890625 53.21875 53.421875 
Q 53.21875 48.921875 51.53125 44.890625 
Q 49.859375 40.875 45.40625 35.40625 
Q 44.1875 33.984375 37.640625 27.21875 
Q 31.109375 20.453125 19.1875 8.296875 
" id="BitstreamVeraSans-Roman-32"/>
      </defs>
      <g transform="translate(211.85625 263.5984375)scale(0.1 -0.1)">
       <use xlink:href="#BitstreamVeraSans-Roman-32"/>
       <use x="63.623046875" xlink:href="#BitstreamVeraSans-Roman-30"/>
       <use x="127.24609375" xlink:href="#BitstreamVeraSans-Roman-30"/>
      </g>
     </g>
    </g>
    <g id="xtick_6">
     <g id="line2d_20">
      <path clip-path="url(#pc7ec51eea9)" d="M 263.25 252 
L 263.25 28.8 
" style="fill:none;stroke:#000000;stroke-dasharray:1.000000,3.000000;stroke-dashoffset:0.0;stroke-width:0.5;"/>
     </g>
     <g id="line2d_21">
      <g>
       <use style="stroke:#000000;stroke-width:0.5;" x="263.25" xlink:href="#m0bf8767e32" y="252.0"/>
      </g>
     </g>
     <g id="line2d_22">
      <g>
       <use style="stroke:#000000;stroke-width:0.5;" x="263.25" xlink:href="#m58fe57e747" y="28.8"/>
      </g>
     </g>
     <g id="text_6">
      <!-- 250 -->
      <g transform="translate(253.70625 263.5984375)scale(0.1 -0.1)">
       <use xlink:href="#BitstreamVeraSans-Roman-32"/>
       <use x="63.623046875" xlink:href="#BitstreamVeraSans-Roman-35"/>
       <use x="127.24609375" xlink:href="#BitstreamVeraSans-Roman-30"/>
      </g>
     </g>
    </g>
    <g id="xtick_7">
     <g id="line2d_23">
      <path clip-path="url(#pc7ec51eea9)" d="M 305.1 252 
L 305.1 28.8 
" style="fill:none;stroke:#000000;stroke-dasharray:1.000000,3.000000;stroke-dashoffset:0.0;stroke-width:0.5;"/>
     </g>
     <g id="line2d_24">
      <g>
       <use style="stroke:#000000;stroke-width:0.5;" x="305.1" xlink:href="#m0bf8767e32" y="252.0"/>
      </g>
     </g>
     <g id="line2d_25">
      <g>
       <use style="stroke:#000000;stroke-width:0.5;" x="305.1" xlink:href="#m58fe57e747" y="28.8"/>
      </g>
     </g>
     <g id="text_7">
      <!-- 300 -->
      <defs>
       <path d="M 40.578125 39.3125 
Q 47.65625 37.796875 51.625 33 
Q 55.609375 28.21875 55.609375 21.1875 
Q 55.609375 10.40625 48.1875 4.484375 
Q 40.765625 -1.421875 27.09375 -1.421875 
Q 22.515625 -1.421875 17.65625 -0.515625 
Q 12.796875 0.390625 7.625 2.203125 
L 7.625 11.71875 
Q 11.71875 9.328125 16.59375 8.109375 
Q 21.484375 6.890625 26.8125 6.890625 
Q 36.078125 6.890625 40.9375 10.546875 
Q 45.796875 14.203125 45.796875 21.1875 
Q 45.796875 27.640625 41.28125 31.265625 
Q 36.765625 34.90625 28.71875 34.90625 
L 20.21875 34.90625 
L 20.21875 43.015625 
L 29.109375 43.015625 
Q 36.375 43.015625 40.234375 45.921875 
Q 44.09375 48.828125 44.09375 54.296875 
Q 44.09375 59.90625 40.109375 62.90625 
Q 36.140625 65.921875 28.71875 65.921875 
Q 24.65625 65.921875 20.015625 65.03125 
Q 15.375 64.15625 9.8125 62.3125 
L 9.8125 71.09375 
Q 15.4375 72.65625 20.34375 73.4375 
Q 25.25 74.21875 29.59375 74.21875 
Q 40.828125 74.21875 47.359375 69.109375 
Q 53.90625 64.015625 53.90625 55.328125 
Q 53.90625 49.265625 50.4375 45.09375 
Q 46.96875 40.921875 40.578125 39.3125 
" id="BitstreamVeraSans-Roman-33"/>
      </defs>
      <g transform="translate(295.55625 263.5984375)scale(0.1 -0.1)">
       <use xlink:href="#BitstreamVeraSans-Roman-33"/>
       <use x="63.623046875" xlink:href="#BitstreamVeraSans-Roman-30"/>
       <use x="127.24609375" xlink:href="#BitstreamVeraSans-Roman-30"/>
      </g>
     </g>
    </g>
    <g id="xtick_8">
     <g id="line2d_26">
      <path clip-path="url(#pc7ec51eea9)" d="M 346.95 252 
L 346.95 28.8 
" style="fill:none;stroke:#000000;stroke-dasharray:1.000000,3.000000;stroke-dashoffset:0.0;stroke-width:0.5;"/>
     </g>
     <g id="line2d_27">
      <g>
       <use style="stroke:#000000;stroke-width:0.5;" x="346.95" xlink:href="#m0bf8767e32" y="252.0"/>
      </g>
     </g>
     <g id="line2d_28">
      <g>
       <use style="stroke:#000000;stroke-width:0.5;" x="346.95" xlink:href="#m58fe57e747" y="28.8"/>
      </g>
     </g>
     <g id="text_8">
      <!-- 350 -->
      <g transform="translate(337.40625 263.5984375)scale(0.1 -0.1)">
       <use xlink:href="#BitstreamVeraSans-Roman-33"/>
       <use x="63.623046875" xlink:href="#BitstreamVeraSans-Roman-35"/>
       <use x="127.24609375" xlink:href="#BitstreamVeraSans-Roman-30"/>
      </g>
     </g>
    </g>
    <g id="xtick_9">
     <g id="line2d_29">
      <path clip-path="url(#pc7ec51eea9)" d="M 388.8 252 
L 388.8 28.8 
" style="fill:none;stroke:#000000;stroke-dasharray:1.000000,3.000000;stroke-dashoffset:0.0;stroke-width:0.5;"/>
     </g>
     <g id="line2d_30">
      <g>
       <use style="stroke:#000000;stroke-width:0.5;" x="388.8" xlink:href="#m0bf8767e32" y="252.0"/>
      </g>
     </g>
     <g id="line2d_31">
      <g>
       <use style="stroke:#000000;stroke-width:0.5;" x="388.8" xlink:href="#m58fe57e747" y="28.8"/>
      </g>
     </g>
     <g id="text_9">
      <!-- 400 -->
      <defs>
       <path d="M 37.796875 64.3125 
L 12.890625 25.390625 
L 37.796875 25.390625 
z
M 35.203125 72.90625 
L 47.609375 72.90625 
L 47.609375 25.390625 
L 58.015625 25.390625 
L 58.015625 17.1875 
L 47.609375 17.1875 
L 47.609375 0 
L 37.796875 0 
L 37.796875 17.1875 
L 4.890625 17.1875 
L 4.890625 26.703125 
z
" id="BitstreamVeraSans-Roman-34"/>
      </defs>
      <g transform="translate(379.25625 263.5984375)scale(0.1 -0.1)">
       <use xlink:href="#BitstreamVeraSans-Roman-34"/>
       <use x="63.623046875" xlink:href="#BitstreamVeraSans-Roman-30"/>
       <use x="127.24609375" xlink:href="#BitstreamVeraSans-Roman-30"/>
      </g>
     </g>
    </g>
    <g id="text_10">
     <!-- Generations -->
     <defs>
      <path d="M 59.515625 10.40625 
L 59.515625 29.984375 
L 43.40625 29.984375 
L 43.40625 38.09375 
L 69.28125 38.09375 
L 69.28125 6.78125 
Q 63.578125 2.734375 56.6875 0.65625 
Q 49.8125 -1.421875 42 -1.421875 
Q 24.90625 -1.421875 15.25 8.5625 
Q 5.609375 18.5625 5.609375 36.375 
Q 5.609375 54.25 15.25 64.234375 
Q 24.90625 74.21875 42 74.21875 
Q 49.125 74.21875 55.546875 72.453125 
Q 61.96875 70.703125 67.390625 67.28125 
L 67.390625 56.78125 
Q 61.921875 61.421875 55.765625 63.765625 
Q 49.609375 66.109375 42.828125 66.109375 
Q 29.4375 66.109375 22.71875 58.640625 
Q 16.015625 51.171875 16.015625 36.375 
Q 16.015625 21.625 22.71875 14.15625 
Q 29.4375 6.6875 42.828125 6.6875 
Q 48.046875 6.6875 52.140625 7.59375 
Q 56.25 8.5 59.515625 10.40625 
" id="BitstreamVeraSans-Roman-47"/>
      <path d="M 9.421875 54.6875 
L 18.40625 54.6875 
L 18.40625 0 
L 9.421875 0 
z
M 9.421875 75.984375 
L 18.40625 75.984375 
L 18.40625 64.59375 
L 9.421875 64.59375 
z
" id="BitstreamVeraSans-Roman-69"/>
      <path d="M 41.109375 46.296875 
Q 39.59375 47.171875 37.8125 47.578125 
Q 36.03125 48 33.890625 48 
Q 26.265625 48 22.1875 43.046875 
Q 18.109375 38.09375 18.109375 28.8125 
L 18.109375 0 
L 9.078125 0 
L 9.078125 54.6875 
L 18.109375 54.6875 
L 18.109375 46.1875 
Q 20.953125 51.171875 25.484375 53.578125 
Q 30.03125 56 36.53125 56 
Q 37.453125 56 38.578125 55.875 
Q 39.703125 55.765625 41.0625 55.515625 
z
" id="BitstreamVeraSans-Roman-72"/>
      <path d="M 18.3125 70.21875 
L 18.3125 54.6875 
L 36.8125 54.6875 
L 36.8125 47.703125 
L 18.3125 47.703125 
L 18.3125 18.015625 
Q 18.3125 11.328125 20.140625 9.421875 
Q 21.96875 7.515625 27.59375 7.515625 
L 36.8125 7.515625 
L 36.8125 0 
L 27.59375 0 
Q 17.1875 0 13.234375 3.875 
Q 9.28125 7.765625 9.28125 18.015625 
L 9.28125 47.703125 
L 2.6875 47.703125 
L 2.6875 54.6875 
L 9.28125 54.6875 
L 9.28125 70.21875 
z
" id="BitstreamVeraSans-Roman-74"/>
      <path d="M 56.203125 29.59375 
L 56.203125 25.203125 
L 14.890625 25.203125 
Q 15.484375 15.921875 20.484375 11.0625 
Q 25.484375 6.203125 34.421875 6.203125 
Q 39.59375 6.203125 44.453125 7.46875 
Q 49.3125 8.734375 54.109375 11.28125 
L 54.109375 2.78125 
Q 49.265625 0.734375 44.1875 -0.34375 
Q 39.109375 -1.421875 33.890625 -1.421875 
Q 20.796875 -1.421875 13.15625 6.1875 
Q 5.515625 13.8125 5.515625 26.8125 
Q 5.515625 40.234375 12.765625 48.109375 
Q 20.015625 56 32.328125 56 
Q 43.359375 56 49.78125 48.890625 
Q 56.203125 41.796875 56.203125 29.59375 
M 47.21875 32.234375 
Q 47.125 39.59375 43.09375 43.984375 
Q 39.0625 48.390625 32.421875 48.390625 
Q 24.90625 48.390625 20.390625 44.140625 
Q 15.875 39.890625 15.1875 32.171875 
z
" id="BitstreamVeraSans-Roman-65"/>
      <path d="M 54.890625 33.015625 
L 54.890625 0 
L 45.90625 0 
L 45.90625 32.71875 
Q 45.90625 40.484375 42.875 44.328125 
Q 39.84375 48.1875 33.796875 48.1875 
Q 26.515625 48.1875 22.3125 43.546875 
Q 18.109375 38.921875 18.109375 30.90625 
L 18.109375 0 
L 9.078125 0 
L 9.078125 54.6875 
L 18.109375 54.6875 
L 18.109375 46.1875 
Q 21.34375 51.125 25.703125 53.5625 
Q 30.078125 56 35.796875 56 
Q 45.21875 56 50.046875 50.171875 
Q 54.890625 44.34375 54.890625 33.015625 
" id="BitstreamVeraSans-Roman-6e"/>
      <path d="M 44.28125 53.078125 
L 44.28125 44.578125 
Q 40.484375 46.53125 36.375 47.5 
Q 32.28125 48.484375 27.875 48.484375 
Q 21.1875 48.484375 17.84375 46.4375 
Q 14.5 44.390625 14.5 40.28125 
Q 14.5 37.15625 16.890625 35.375 
Q 19.28125 33.59375 26.515625 31.984375 
L 29.59375 31.296875 
Q 39.15625 29.25 43.1875 25.515625 
Q 47.21875 21.78125 47.21875 15.09375 
Q 47.21875 7.46875 41.1875 3.015625 
Q 35.15625 -1.421875 24.609375 -1.421875 
Q 20.21875 -1.421875 15.453125 -0.5625 
Q 10.6875 0.296875 5.421875 2 
L 5.421875 11.28125 
Q 10.40625 8.6875 15.234375 7.390625 
Q 20.0625 6.109375 24.8125 6.109375 
Q 31.15625 6.109375 34.5625 8.28125 
Q 37.984375 10.453125 37.984375 14.40625 
Q 37.984375 18.0625 35.515625 20.015625 
Q 33.0625 21.96875 24.703125 23.78125 
L 21.578125 24.515625 
Q 13.234375 26.265625 9.515625 29.90625 
Q 5.8125 33.546875 5.8125 39.890625 
Q 5.8125 47.609375 11.28125 51.796875 
Q 16.75 56 26.8125 56 
Q 31.78125 56 36.171875 55.265625 
Q 40.578125 54.546875 44.28125 53.078125 
" id="BitstreamVeraSans-Roman-73"/>
      <path d="M 30.609375 48.390625 
Q 23.390625 48.390625 19.1875 42.75 
Q 14.984375 37.109375 14.984375 27.296875 
Q 14.984375 17.484375 19.15625 11.84375 
Q 23.34375 6.203125 30.609375 6.203125 
Q 37.796875 6.203125 41.984375 11.859375 
Q 46.1875 17.53125 46.1875 27.296875 
Q 46.1875 37.015625 41.984375 42.703125 
Q 37.796875 48.390625 30.609375 48.390625 
M 30.609375 56 
Q 42.328125 56 49.015625 48.375 
Q 55.71875 40.765625 55.71875 27.296875 
Q 55.71875 13.875 49.015625 6.21875 
Q 42.328125 -1.421875 30.609375 -1.421875 
Q 18.84375 -1.421875 12.171875 6.21875 
Q 5.515625 13.875 5.515625 27.296875 
Q 5.515625 40.765625 12.171875 48.375 
Q 18.84375 56 30.609375 56 
" id="BitstreamVeraSans-Roman-6f"/>
      <path d="M 34.28125 27.484375 
Q 23.390625 27.484375 19.1875 25 
Q 14.984375 22.515625 14.984375 16.5 
Q 14.984375 11.71875 18.140625 8.90625 
Q 21.296875 6.109375 26.703125 6.109375 
Q 34.1875 6.109375 38.703125 11.40625 
Q 43.21875 16.703125 43.21875 25.484375 
L 43.21875 27.484375 
z
M 52.203125 31.203125 
L 52.203125 0 
L 43.21875 0 
L 43.21875 8.296875 
Q 40.140625 3.328125 35.546875 0.953125 
Q 30.953125 -1.421875 24.3125 -1.421875 
Q 15.921875 -1.421875 10.953125 3.296875 
Q 6 8.015625 6 15.921875 
Q 6 25.140625 12.171875 29.828125 
Q 18.359375 34.515625 30.609375 34.515625 
L 43.21875 34.515625 
L 43.21875 35.40625 
Q 43.21875 41.609375 39.140625 45 
Q 35.0625 48.390625 27.6875 48.390625 
Q 23 48.390625 18.546875 47.265625 
Q 14.109375 46.140625 10.015625 43.890625 
L 10.015625 52.203125 
Q 14.9375 54.109375 19.578125 55.046875 
Q 24.21875 56 28.609375 56 
Q 40.484375 56 46.34375 49.84375 
Q 52.203125 43.703125 52.203125 31.203125 
" id="BitstreamVeraSans-Roman-61"/>
     </defs>
     <g transform="translate(190.90234375 278.2765625)scale(0.1 -0.1)">
      <use xlink:href="#BitstreamVeraSans-Roman-47"/>
      <use x="77.490234375" xlink:href="#BitstreamVeraSans-Roman-65"/>
      <use x="139.013671875" xlink:href="#BitstreamVeraSans-Roman-6e"/>
      <use x="202.392578125" xlink:href="#BitstreamVeraSans-Roman-65"/>
      <use x="263.916015625" xlink:href="#BitstreamVeraSans-Roman-72"/>
      <use x="305.029296875" xlink:href="#BitstreamVeraSans-Roman-61"/>
      <use x="366.30859375" xlink:href="#BitstreamVeraSans-Roman-74"/>
      <use x="405.517578125" xlink:href="#BitstreamVeraSans-Roman-69"/>
      <use x="433.30078125" xlink:href="#BitstreamVeraSans-Roman-6f"/>
      <use x="494.482421875" xlink:href="#BitstreamVeraSans-Roman-6e"/>
      <use x="557.861328125" xlink:href="#BitstreamVeraSans-Roman-73"/>
     </g>
    </g>
   </g>
   <g id="matplotlib.axis_2">
    <g id="ytick_1">
     <g id="line2d_32">
      <path clip-path="url(#pc7ec51eea9)" d="M 54 252 
L 388.8 252 
" style="fill:none;stroke:#000000;stroke-dasharray:1.000000,3.000000;stroke-dashoffset:0.0;stroke-width:0.5;"/>
     </g>
     <g id="line2d_33">
      <defs>
       <path d="M 0 0 
L 4 0 
" id="ma4b794273c" style="stroke:#000000;stroke-width:0.5;"/>
      </defs>
      <g>
       <use style="stroke:#000000;stroke-width:0.5;" x="54.0" xlink:href="#ma4b794273c" y="252.0"/>
      </g>
     </g>
     <g id="line2d_34">
      <defs>
       <path d="M 0 0 
L -4 0 
" id="m8b971d94a9" style="stroke:#000000;stroke-width:0.5;"/>
      </defs>
      <g>
       <use style="stroke:#000000;stroke-width:0.5;" x="388.8" xlink:href="#m8b971d94a9" y="252.0"/>
      </g>
     </g>
     <g id="text_11">
      <!-- 200 -->
      <defs>
       <path d="M 10.59375 35.5 
L 73.1875 35.5 
L 73.1875 27.203125 
L 10.59375 27.203125 
z
" id="BitstreamVeraSans-Roman-2212"/>
      </defs>
      <g transform="translate(22.5328125 254.759375)scale(0.1 -0.1)">
       <use xlink:href="#BitstreamVeraSans-Roman-2212"/>
       <use x="83.7890625" xlink:href="#BitstreamVeraSans-Roman-32"/>
       <use x="147.412109375" xlink:href="#BitstreamVeraSans-Roman-30"/>
       <use x="211.03515625" xlink:href="#BitstreamVeraSans-Roman-30"/>
      </g>
     </g>
    </g>
    <g id="ytick_2">
     <g id="line2d_35">
      <path clip-path="url(#pc7ec51eea9)" d="M 54 220.114286 
L 388.8 220.114286 
" style="fill:none;stroke:#000000;stroke-dasharray:1.000000,3.000000;stroke-dashoffset:0.0;stroke-width:0.5;"/>
     </g>
     <g id="line2d_36">
      <g>
       <use style="stroke:#000000;stroke-width:0.5;" x="54.0" xlink:href="#ma4b794273c" y="220.114285714"/>
      </g>
     </g>
     <g id="line2d_37">
      <g>
       <use style="stroke:#000000;stroke-width:0.5;" x="388.8" xlink:href="#m8b971d94a9" y="220.114285714"/>
      </g>
     </g>
     <g id="text_12">
      <!-- 100 -->
      <g transform="translate(22.5328125 222.873660714)scale(0.1 -0.1)">
       <use xlink:href="#BitstreamVeraSans-Roman-2212"/>
       <use x="83.7890625" xlink:href="#BitstreamVeraSans-Roman-31"/>
       <use x="147.412109375" xlink:href="#BitstreamVeraSans-Roman-30"/>
       <use x="211.03515625" xlink:href="#BitstreamVeraSans-Roman-30"/>
      </g>
     </g>
    </g>
    <g id="ytick_3">
     <g id="line2d_38">
      <path clip-path="url(#pc7ec51eea9)" d="M 54 188.228571 
L 388.8 188.228571 
" style="fill:none;stroke:#000000;stroke-dasharray:1.000000,3.000000;stroke-dashoffset:0.0;stroke-width:0.5;"/>
     </g>
     <g id="line2d_39">
      <g>
       <use style="stroke:#000000;stroke-width:0.5;" x="54.0" xlink:href="#ma4b794273c" y="188.228571429"/>
      </g>
     </g>
     <g id="line2d_40">
      <g>
       <use style="stroke:#000000;stroke-width:0.5;" x="388.8" xlink:href="#m8b971d94a9" y="188.228571429"/>
      </g>
     </g>
     <g id="text_13">
      <!-- 0 -->
      <g transform="translate(43.6375 190.987946429)scale(0.1 -0.1)">
       <use xlink:href="#BitstreamVeraSans-Roman-30"/>
      </g>
     </g>
    </g>
    <g id="ytick_4">
     <g id="line2d_41">
      <path clip-path="url(#pc7ec51eea9)" d="M 54 156.342857 
L 388.8 156.342857 
" style="fill:none;stroke:#000000;stroke-dasharray:1.000000,3.000000;stroke-dashoffset:0.0;stroke-width:0.5;"/>
     </g>
     <g id="line2d_42">
      <g>
       <use style="stroke:#000000;stroke-width:0.5;" x="54.0" xlink:href="#ma4b794273c" y="156.342857143"/>
      </g>
     </g>
     <g id="line2d_43">
      <g>
       <use style="stroke:#000000;stroke-width:0.5;" x="388.8" xlink:href="#m8b971d94a9" y="156.342857143"/>
      </g>
     </g>
     <g id="text_14">
      <!-- 100 -->
      <g transform="translate(30.9125 159.102232143)scale(0.1 -0.1)">
       <use xlink:href="#BitstreamVeraSans-Roman-31"/>
       <use x="63.623046875" xlink:href="#BitstreamVeraSans-Roman-30"/>
       <use x="127.24609375" xlink:href="#BitstreamVeraSans-Roman-30"/>
      </g>
     </g>
    </g>
    <g id="ytick_5">
     <g id="line2d_44">
      <path clip-path="url(#pc7ec51eea9)" d="M 54 124.457143 
L 388.8 124.457143 
" style="fill:none;stroke:#000000;stroke-dasharray:1.000000,3.000000;stroke-dashoffset:0.0;stroke-width:0.5;"/>
     </g>
     <g id="line2d_45">
      <g>
       <use style="stroke:#000000;stroke-width:0.5;" x="54.0" xlink:href="#ma4b794273c" y="124.457142857"/>
      </g>
     </g>
     <g id="line2d_46">
      <g>
       <use style="stroke:#000000;stroke-width:0.5;" x="388.8" xlink:href="#m8b971d94a9" y="124.457142857"/>
      </g>
     </g>
     <g id="text_15">
      <!-- 200 -->
      <g transform="translate(30.9125 127.216517857)scale(0.1 -0.1)">
       <use xlink:href="#BitstreamVeraSans-Roman-32"/>
       <use x="63.623046875" xlink:href="#BitstreamVeraSans-Roman-30"/>
       <use x="127.24609375" xlink:href="#BitstreamVeraSans-Roman-30"/>
      </g>
     </g>
    </g>
    <g id="ytick_6">
     <g id="line2d_47">
      <path clip-path="url(#pc7ec51eea9)" d="M 54 92.571429 
L 388.8 92.571429 
" style="fill:none;stroke:#000000;stroke-dasharray:1.000000,3.000000;stroke-dashoffset:0.0;stroke-width:0.5;"/>
     </g>
     <g id="line2d_48">
      <g>
       <use style="stroke:#000000;stroke-width:0.5;" x="54.0" xlink:href="#ma4b794273c" y="92.5714285714"/>
      </g>
     </g>
     <g id="line2d_49">
      <g>
       <use style="stroke:#000000;stroke-width:0.5;" x="388.8" xlink:href="#m8b971d94a9" y="92.5714285714"/>
      </g>
     </g>
     <g id="text_16">
      <!-- 300 -->
      <g transform="translate(30.9125 95.3308035714)scale(0.1 -0.1)">
       <use xlink:href="#BitstreamVeraSans-Roman-33"/>
       <use x="63.623046875" xlink:href="#BitstreamVeraSans-Roman-30"/>
       <use x="127.24609375" xlink:href="#BitstreamVeraSans-Roman-30"/>
      </g>
     </g>
    </g>
    <g id="ytick_7">
     <g id="line2d_50">
      <path clip-path="url(#pc7ec51eea9)" d="M 54 60.685714 
L 388.8 60.685714 
" style="fill:none;stroke:#000000;stroke-dasharray:1.000000,3.000000;stroke-dashoffset:0.0;stroke-width:0.5;"/>
     </g>
     <g id="line2d_51">
      <g>
       <use style="stroke:#000000;stroke-width:0.5;" x="54.0" xlink:href="#ma4b794273c" y="60.6857142857"/>
      </g>
     </g>
     <g id="line2d_52">
      <g>
       <use style="stroke:#000000;stroke-width:0.5;" x="388.8" xlink:href="#m8b971d94a9" y="60.6857142857"/>
      </g>
     </g>
     <g id="text_17">
      <!-- 400 -->
      <g transform="translate(30.9125 63.4450892857)scale(0.1 -0.1)">
       <use xlink:href="#BitstreamVeraSans-Roman-34"/>
       <use x="63.623046875" xlink:href="#BitstreamVeraSans-Roman-30"/>
       <use x="127.24609375" xlink:href="#BitstreamVeraSans-Roman-30"/>
      </g>
     </g>
    </g>
    <g id="ytick_8">
     <g id="line2d_53">
      <path clip-path="url(#pc7ec51eea9)" d="M 54 28.8 
L 388.8 28.8 
" style="fill:none;stroke:#000000;stroke-dasharray:1.000000,3.000000;stroke-dashoffset:0.0;stroke-width:0.5;"/>
     </g>
     <g id="line2d_54">
      <g>
       <use style="stroke:#000000;stroke-width:0.5;" x="54.0" xlink:href="#ma4b794273c" y="28.8"/>
      </g>
     </g>
     <g id="line2d_55">
      <g>
       <use style="stroke:#000000;stroke-width:0.5;" x="388.8" xlink:href="#m8b971d94a9" y="28.8"/>
      </g>
     </g>
     <g id="text_18">
      <!-- 500 -->
      <g transform="translate(30.9125 31.559375)scale(0.1 -0.1)">
       <use xlink:href="#BitstreamVeraSans-Roman-35"/>
       <use x="63.623046875" xlink:href="#BitstreamVeraSans-Roman-30"/>
       <use x="127.24609375" xlink:href="#BitstreamVeraSans-Roman-30"/>
      </g>
     </g>
    </g>
    <g id="text_19">
     <!-- Fitness -->
     <defs>
      <path d="M 9.8125 72.90625 
L 51.703125 72.90625 
L 51.703125 64.59375 
L 19.671875 64.59375 
L 19.671875 43.109375 
L 48.578125 43.109375 
L 48.578125 34.8125 
L 19.671875 34.8125 
L 19.671875 0 
L 9.8125 0 
z
" id="BitstreamVeraSans-Roman-46"/>
     </defs>
     <g transform="translate(15.453125 158.07421875)rotate(-90.0)scale(0.1 -0.1)">
      <use xlink:href="#BitstreamVeraSans-Roman-46"/>
      <use x="57.41015625" xlink:href="#BitstreamVeraSans-Roman-69"/>
      <use x="85.193359375" xlink:href="#BitstreamVeraSans-Roman-74"/>
      <use x="124.40234375" xlink:href="#BitstreamVeraSans-Roman-6e"/>
      <use x="187.78125" xlink:href="#BitstreamVeraSans-Roman-65"/>
      <use x="249.3046875" xlink:href="#BitstreamVeraSans-Roman-73"/>
      <use x="301.404296875" xlink:href="#BitstreamVeraSans-Roman-73"/>
     </g>
    </g>
   </g>
   <g id="text_20">
    <!-- Population's average and best fitness -->
    <defs>
     <path d="M 19.671875 64.796875 
L 19.671875 37.40625 
L 32.078125 37.40625 
Q 38.96875 37.40625 42.71875 40.96875 
Q 46.484375 44.53125 46.484375 51.125 
Q 46.484375 57.671875 42.71875 61.234375 
Q 38.96875 64.796875 32.078125 64.796875 
z
M 9.8125 72.90625 
L 32.078125 72.90625 
Q 44.34375 72.90625 50.609375 67.359375 
Q 56.890625 61.8125 56.890625 51.125 
Q 56.890625 40.328125 50.609375 34.8125 
Q 44.34375 29.296875 32.078125 29.296875 
L 19.671875 29.296875 
L 19.671875 0 
L 9.8125 0 
z
" id="BitstreamVeraSans-Roman-50"/>
     <path d="M 37.109375 75.984375 
L 37.109375 68.5 
L 28.515625 68.5 
Q 23.6875 68.5 21.796875 66.546875 
Q 19.921875 64.59375 19.921875 59.515625 
L 19.921875 54.6875 
L 34.71875 54.6875 
L 34.71875 47.703125 
L 19.921875 47.703125 
L 19.921875 0 
L 10.890625 0 
L 10.890625 47.703125 
L 2.296875 47.703125 
L 2.296875 54.6875 
L 10.890625 54.6875 
L 10.890625 58.5 
Q 10.890625 67.625 15.140625 71.796875 
Q 19.390625 75.984375 28.609375 75.984375 
z
" id="BitstreamVeraSans-Roman-66"/>
     <path d="M 9.421875 75.984375 
L 18.40625 75.984375 
L 18.40625 0 
L 9.421875 0 
z
" id="BitstreamVeraSans-Roman-6c"/>
     <path d="M 48.6875 27.296875 
Q 48.6875 37.203125 44.609375 42.84375 
Q 40.53125 48.484375 33.40625 48.484375 
Q 26.265625 48.484375 22.1875 42.84375 
Q 18.109375 37.203125 18.109375 27.296875 
Q 18.109375 17.390625 22.1875 11.75 
Q 26.265625 6.109375 33.40625 6.109375 
Q 40.53125 6.109375 44.609375 11.75 
Q 48.6875 17.390625 48.6875 27.296875 
M 18.109375 46.390625 
Q 20.953125 51.265625 25.265625 53.625 
Q 29.59375 56 35.59375 56 
Q 45.5625 56 51.78125 48.09375 
Q 58.015625 40.1875 58.015625 27.296875 
Q 58.015625 14.40625 51.78125 6.484375 
Q 45.5625 -1.421875 35.59375 -1.421875 
Q 29.59375 -1.421875 25.265625 0.953125 
Q 20.953125 3.328125 18.109375 8.203125 
L 18.109375 0 
L 9.078125 0 
L 9.078125 75.984375 
L 18.109375 75.984375 
z
" id="BitstreamVeraSans-Roman-62"/>
     <path d="M 17.921875 72.90625 
L 17.921875 45.796875 
L 9.625 45.796875 
L 9.625 72.90625 
z
" id="BitstreamVeraSans-Roman-27"/>
     <path d="M 45.40625 27.984375 
Q 45.40625 37.75 41.375 43.109375 
Q 37.359375 48.484375 30.078125 48.484375 
Q 22.859375 48.484375 18.828125 43.109375 
Q 14.796875 37.75 14.796875 27.984375 
Q 14.796875 18.265625 18.828125 12.890625 
Q 22.859375 7.515625 30.078125 7.515625 
Q 37.359375 7.515625 41.375 12.890625 
Q 45.40625 18.265625 45.40625 27.984375 
M 54.390625 6.78125 
Q 54.390625 -7.171875 48.1875 -13.984375 
Q 42 -20.796875 29.203125 -20.796875 
Q 24.46875 -20.796875 20.265625 -20.09375 
Q 16.0625 -19.390625 12.109375 -17.921875 
L 12.109375 -9.1875 
Q 16.0625 -11.328125 19.921875 -12.34375 
Q 23.78125 -13.375 27.78125 -13.375 
Q 36.625 -13.375 41.015625 -8.765625 
Q 45.40625 -4.15625 45.40625 5.171875 
L 45.40625 9.625 
Q 42.625 4.78125 38.28125 2.390625 
Q 33.9375 0 27.875 0 
Q 17.828125 0 11.671875 7.65625 
Q 5.515625 15.328125 5.515625 27.984375 
Q 5.515625 40.671875 11.671875 48.328125 
Q 17.828125 56 27.875 56 
Q 33.9375 56 38.28125 53.609375 
Q 42.625 51.21875 45.40625 46.390625 
L 45.40625 54.6875 
L 54.390625 54.6875 
z
" id="BitstreamVeraSans-Roman-67"/>
     <path id="BitstreamVeraSans-Roman-20"/>
     <path d="M 2.984375 54.6875 
L 12.5 54.6875 
L 29.59375 8.796875 
L 46.6875 54.6875 
L 56.203125 54.6875 
L 35.6875 0 
L 23.484375 0 
z
" id="BitstreamVeraSans-Roman-76"/>
     <path d="M 8.5 21.578125 
L 8.5 54.6875 
L 17.484375 54.6875 
L 17.484375 21.921875 
Q 17.484375 14.15625 20.5 10.265625 
Q 23.53125 6.390625 29.59375 6.390625 
Q 36.859375 6.390625 41.078125 11.03125 
Q 45.3125 15.671875 45.3125 23.6875 
L 45.3125 54.6875 
L 54.296875 54.6875 
L 54.296875 0 
L 45.3125 0 
L 45.3125 8.40625 
Q 42.046875 3.421875 37.71875 1 
Q 33.40625 -1.421875 27.6875 -1.421875 
Q 18.265625 -1.421875 13.375 4.4375 
Q 8.5 10.296875 8.5 21.578125 
" id="BitstreamVeraSans-Roman-75"/>
     <path d="M 45.40625 46.390625 
L 45.40625 75.984375 
L 54.390625 75.984375 
L 54.390625 0 
L 45.40625 0 
L 45.40625 8.203125 
Q 42.578125 3.328125 38.25 0.953125 
Q 33.9375 -1.421875 27.875 -1.421875 
Q 17.96875 -1.421875 11.734375 6.484375 
Q 5.515625 14.40625 5.515625 27.296875 
Q 5.515625 40.1875 11.734375 48.09375 
Q 17.96875 56 27.875 56 
Q 33.9375 56 38.25 53.625 
Q 42.578125 51.265625 45.40625 46.390625 
M 14.796875 27.296875 
Q 14.796875 17.390625 18.875 11.75 
Q 22.953125 6.109375 30.078125 6.109375 
Q 37.203125 6.109375 41.296875 11.75 
Q 45.40625 17.390625 45.40625 27.296875 
Q 45.40625 37.203125 41.296875 42.84375 
Q 37.203125 48.484375 30.078125 48.484375 
Q 22.953125 48.484375 18.875 42.84375 
Q 14.796875 37.203125 14.796875 27.296875 
" id="BitstreamVeraSans-Roman-64"/>
     <path d="M 18.109375 8.203125 
L 18.109375 -20.796875 
L 9.078125 -20.796875 
L 9.078125 54.6875 
L 18.109375 54.6875 
L 18.109375 46.390625 
Q 20.953125 51.265625 25.265625 53.625 
Q 29.59375 56 35.59375 56 
Q 45.5625 56 51.78125 48.09375 
Q 58.015625 40.1875 58.015625 27.296875 
Q 58.015625 14.40625 51.78125 6.484375 
Q 45.5625 -1.421875 35.59375 -1.421875 
Q 29.59375 -1.421875 25.265625 0.953125 
Q 20.953125 3.328125 18.109375 8.203125 
M 48.6875 27.296875 
Q 48.6875 37.203125 44.609375 42.84375 
Q 40.53125 48.484375 33.40625 48.484375 
Q 26.265625 48.484375 22.1875 42.84375 
Q 18.109375 37.203125 18.109375 27.296875 
Q 18.109375 17.390625 22.1875 11.75 
Q 26.265625 6.109375 33.40625 6.109375 
Q 40.53125 6.109375 44.609375 11.75 
Q 48.6875 17.390625 48.6875 27.296875 
" id="BitstreamVeraSans-Roman-70"/>
    </defs>
    <g transform="translate(108.555 23.8)scale(0.12 -0.12)">
     <use xlink:href="#BitstreamVeraSans-Roman-50"/>
     <use x="60.255859375" xlink:href="#BitstreamVeraSans-Roman-6f"/>
     <use x="121.4375" xlink:href="#BitstreamVeraSans-Roman-70"/>
     <use x="184.9140625" xlink:href="#BitstreamVeraSans-Roman-75"/>
     <use x="248.29296875" xlink:href="#BitstreamVeraSans-Roman-6c"/>
     <use x="276.076171875" xlink:href="#BitstreamVeraSans-Roman-61"/>
     <use x="337.35546875" xlink:href="#BitstreamVeraSans-Roman-74"/>
     <use x="376.564453125" xlink:href="#BitstreamVeraSans-Roman-69"/>
     <use x="404.34765625" xlink:href="#BitstreamVeraSans-Roman-6f"/>
     <use x="465.529296875" xlink:href="#BitstreamVeraSans-Roman-6e"/>
     <use x="528.908203125" xlink:href="#BitstreamVeraSans-Roman-27"/>
     <use x="556.3984375" xlink:href="#BitstreamVeraSans-Roman-73"/>
     <use x="608.498046875" xlink:href="#BitstreamVeraSans-Roman-20"/>
     <use x="640.28515625" xlink:href="#BitstreamVeraSans-Roman-61"/>
     <use x="701.564453125" xlink:href="#BitstreamVeraSans-Roman-76"/>
     <use x="760.744140625" xlink:href="#BitstreamVeraSans-Roman-65"/>
     <use x="822.267578125" xlink:href="#BitstreamVeraSans-Roman-72"/>
     <use x="863.380859375" xlink:href="#BitstreamVeraSans-Roman-61"/>
     <use x="924.66015625" xlink:href="#BitstreamVeraSans-Roman-67"/>
     <use x="988.13671875" xlink:href="#BitstreamVeraSans-Roman-65"/>
     <use x="1049.66015625" xlink:href="#BitstreamVeraSans-Roman-20"/>
     <use x="1081.447265625" xlink:href="#BitstreamVeraSans-Roman-61"/>
     <use x="1142.7265625" xlink:href="#BitstreamVeraSans-Roman-6e"/>
     <use x="1206.10546875" xlink:href="#BitstreamVeraSans-Roman-64"/>
     <use x="1269.58203125" xlink:href="#BitstreamVeraSans-Roman-20"/>
     <use x="1301.369140625" xlink:href="#BitstreamVeraSans-Roman-62"/>
     <use x="1364.845703125" xlink:href="#BitstreamVeraSans-Roman-65"/>
     <use x="1426.369140625" xlink:href="#BitstreamVeraSans-Roman-73"/>
     <use x="1478.46875" xlink:href="#BitstreamVeraSans-Roman-74"/>
     <use x="1517.677734375" xlink:href="#BitstreamVeraSans-Roman-20"/>
     <use x="1549.46484375" xlink:href="#BitstreamVeraSans-Roman-66"/>
     <use x="1584.669921875" xlink:href="#BitstreamVeraSans-Roman-69"/>
     <use x="1612.453125" xlink:href="#BitstreamVeraSans-Roman-74"/>
     <use x="1651.662109375" xlink:href="#BitstreamVeraSans-Roman-6e"/>
     <use x="1715.041015625" xlink:href="#BitstreamVeraSans-Roman-65"/>
     <use x="1776.564453125" xlink:href="#BitstreamVeraSans-Roman-73"/>
     <use x="1828.6640625" xlink:href="#BitstreamVeraSans-Roman-73"/>
    </g>
   </g>
   <g id="legend_1">
    <g id="patch_7">
     <path d="M 60 246 
L 152.32875 246 
L 152.32875 171.945 
L 60 171.945 
z
" style="fill:#ffffff;stroke:#000000;stroke-linejoin:miter;"/>
    </g>
    <g id="line2d_56">
     <path d="M 68.4 181.663125 
L 85.2 181.663125 
" style="fill:none;stroke:#0000ff;stroke-linecap:square;"/>
    </g>
    <g id="line2d_57"/>
    <g id="text_21">
     <!-- average -->
     <g transform="translate(98.4 185.863125)scale(0.12 -0.12)">
      <use xlink:href="#BitstreamVeraSans-Roman-61"/>
      <use x="61.279296875" xlink:href="#BitstreamVeraSans-Roman-76"/>
      <use x="120.458984375" xlink:href="#BitstreamVeraSans-Roman-65"/>
      <use x="181.982421875" xlink:href="#BitstreamVeraSans-Roman-72"/>
      <use x="223.095703125" xlink:href="#BitstreamVeraSans-Roman-61"/>
      <use x="284.375" xlink:href="#BitstreamVeraSans-Roman-67"/>
      <use x="347.8515625" xlink:href="#BitstreamVeraSans-Roman-65"/>
     </g>
    </g>
    <g id="line2d_58">
     <path d="M 68.4 199.276875 
L 85.2 199.276875 
" style="fill:none;stroke:#008000;stroke-dasharray:3.000000,5.000000,1.000000,5.000000;stroke-dashoffset:0.0;"/>
    </g>
    <g id="line2d_59"/>
    <g id="text_22">
     <!-- -1 sd -->
     <defs>
      <path d="M 4.890625 31.390625 
L 31.203125 31.390625 
L 31.203125 23.390625 
L 4.890625 23.390625 
z
" id="BitstreamVeraSans-Roman-2d"/>
     </defs>
     <g transform="translate(98.4 203.476875)scale(0.12 -0.12)">
      <use xlink:href="#BitstreamVeraSans-Roman-2d"/>
      <use x="36.083984375" xlink:href="#BitstreamVeraSans-Roman-31"/>
      <use x="99.70703125" xlink:href="#BitstreamVeraSans-Roman-20"/>
      <use x="131.494140625" xlink:href="#BitstreamVeraSans-Roman-73"/>
      <use x="183.59375" xlink:href="#BitstreamVeraSans-Roman-64"/>
     </g>
    </g>
    <g id="line2d_60">
     <path d="M 68.4 216.890625 
L 85.2 216.890625 
" style="fill:none;stroke:#008000;stroke-dasharray:3.000000,5.000000,1.000000,5.000000;stroke-dashoffset:0.0;"/>
    </g>
    <g id="line2d_61"/>
    <g id="text_23">
     <!-- +1 sd -->
     <defs>
      <path d="M 46 62.703125 
L 46 35.5 
L 73.1875 35.5 
L 73.1875 27.203125 
L 46 27.203125 
L 46 0 
L 37.796875 0 
L 37.796875 27.203125 
L 10.59375 27.203125 
L 10.59375 35.5 
L 37.796875 35.5 
L 37.796875 62.703125 
z
" id="BitstreamVeraSans-Roman-2b"/>
     </defs>
     <g transform="translate(98.4 221.090625)scale(0.12 -0.12)">
      <use xlink:href="#BitstreamVeraSans-Roman-2b"/>
      <use x="83.7890625" xlink:href="#BitstreamVeraSans-Roman-31"/>
      <use x="147.412109375" xlink:href="#BitstreamVeraSans-Roman-20"/>
      <use x="179.19921875" xlink:href="#BitstreamVeraSans-Roman-73"/>
      <use x="231.298828125" xlink:href="#BitstreamVeraSans-Roman-64"/>
     </g>
    </g>
    <g id="line2d_62">
     <path d="M 68.4 234.504375 
L 85.2 234.504375 
" style="fill:none;stroke:#ff0000;stroke-linecap:square;"/>
    </g>
    <g id="line2d_63"/>
    <g id="text_24">
     <!-- best -->
     <g transform="translate(98.4 238.704375)scale(0.12 -0.12)">
      <use xlink:href="#BitstreamVeraSans-Roman-62"/>
      <use x="63.4765625" xlink:href="#BitstreamVeraSans-Roman-65"/>
      <use x="125.0" xlink:href="#BitstreamVeraSans-Roman-73"/>
      <use x="177.099609375" xlink:href="#BitstreamVeraSans-Roman-74"/>
     </g>
    </g>
   </g>
  </g>
 </g>
 <defs>
  <clipPath id="pc7ec51eea9">
   <rect height="223.2" width="334.8" x="54.0" y="28.8"/>
  </clipPath>
 </defs>
</svg>
